<?xml version="1.0" encoding="UTF-8" standalone="no"?>
<!-- Created with Inkscape (http://www.inkscape.org/) -->

<svg
   width="65.949188mm"
   height="80.215317mm"
   viewBox="0 0 65.949188 80.215317"
   version="1.1"
   id="svg1"
   xml:space="preserve"
   xmlns:inkscape="http://www.inkscape.org/namespaces/inkscape"
   xmlns:sodipodi="http://sodipodi.sourceforge.net/DTD/sodipodi-0.dtd"
   xmlns="http://www.w3.org/2000/svg"
   xmlns:svg="http://www.w3.org/2000/svg"><sodipodi:namedview
     id="namedview1"
     pagecolor="#ffffff"
     bordercolor="#000000"
     borderopacity="0.25"
     inkscape:showpageshadow="2"
     inkscape:pageopacity="0.0"
     inkscape:pagecheckerboard="0"
     inkscape:deskcolor="#d1d1d1"
     inkscape:document-units="mm"
     inkscape:clip-to-page="false"
     shape-rendering="auto" /><defs
     id="defs1"><inkscape:path-effect
       effect="bspline"
       id="path-effect2-3"
       is_visible="true"
       lpeversion="1.3"
       weight="33.333333"
       steps="2"
       helper_size="0"
       apply_no_weight="true"
       apply_with_weight="true"
       only_selected="false"
       uniform="false" /></defs><g
     inkscape:label="Capa 1"
     inkscape:groupmode="layer"
     id="layer1"
     transform="translate(-56.753421,-53.78266)"><path
       style="fill:#000000;stroke-width:0.264583"
       d="m 69.172776,126.51984 -4.47984,-6.875 -3.637095,-8.33871 -1.907259,-8.29436 -0.620967,-5.766127 0.620967,-7.40726 2.173388,-5.81048 3.016128,-4.5242 2.528226,-2.61693 4.524192,-2.83871 3.592743,-1.06452 4.124999,-0.31048 1.992702,0.18739 c 0,0 3.449997,1.035 3.324542,0.90955 -0.125454,-0.12546 5.112269,1.85045 5.112269,1.85045 l 1.693635,0.53318 2.164088,-0.21955 3.638177,-1.31727 4.704539,-1.53681 2.65229,-0.58436 3.77016,-0.0887 2.70565,0.44355 2.74301,0.67645 1.96807,0.90954 2.26602,1.22318 3.08931,2.59534 1.38,1.94455 0.0997,0.2772 -2.31084,1.54189 -1.97591,1.83477 -1.75636,2.14841 -1.2075,2.13272 -1.11341,3.54409 -0.32932,4.45363 0.75273,4.892727 1.035,2.88545 1.91318,3.0109 3.13636,2.94818 3.92045,2.35227 -0.84682,2.66591 -4.0459,7.93499 -4.29682,5.7709 -1.24405,1.52454 -2.02369,1.70212 -0.876,0.55443 -2.23875,1.03323 -2.9325,0.20386 -2.61886,-0.36068 -5.519975,-2.05432 -2.415,-0.67431 -2.336588,-0.20387 -3.920451,0.59591 -3.983177,1.41137 -3.889087,1.19181 -2.854089,0.12546 -1.474089,-0.28227 -3.073633,-1.78773 -2.540453,-2.54045 z"
       id="path1-0" /><path
       style="fill:#000000;stroke-width:0.264583"
       d="m 88.095144,81.425151 c 0.496591,-1.176135 1.176136,-2.503863 1.934098,-3.617279 0.757962,-1.113416 1.594309,-2.01249 2.582274,-2.885452 0.987964,-0.872961 2.127485,-1.719761 3.387271,-2.451585 1.259786,-0.731825 2.639757,-1.34863 3.873405,-1.724995 1.233648,-0.376364 2.320898,-0.51227 2.780898,0.318883 0.45999,0.831153 0.29272,2.629299 0.0784,3.909987 -0.21432,1.280688 -0.47568,2.043855 -0.88864,2.990002 -0.41296,0.946146 -0.97749,2.075215 -1.76682,3.25659 -0.789323,1.181374 -1.803394,2.414984 -2.901133,3.476129 -1.097739,1.061144 -2.279077,1.94976 -3.32454,2.556126 -1.045463,0.606367 -1.954989,0.93045 -3.042273,1.139542 -1.087284,0.209092 -2.352257,0.303181 -3.078849,0.32409 -0.726591,0.02091 -0.914771,-0.03136 -0.95136,-0.721376 -0.03659,-0.690013 0.07841,-2.017711 0.292728,-3.193857 0.214321,-1.176145 0.527951,-2.20067 1.024541,-3.376805 z"
       id="path2-1"
       inkscape:path-effect="#path-effect2-3"
       inkscape:original-d="m 87.91219,81.576742 c 0.679545,-1.327726 1.359091,-2.655453 2.038633,-3.983177 0.83638,-0.89911 1.672728,-1.798183 2.509089,-2.697271 1.139568,-0.846836 2.279089,-1.693635 3.418634,-2.540453 1.380027,-0.616831 2.759998,-1.233635 4.139994,-1.850453 1.0873,-0.135911 2.17455,-0.271817 3.26182,-0.407726 -0.16728,1.798214 -0.33455,3.59636 -0.50182,5.39454 -0.26137,0.763195 -0.52273,1.526362 -0.78409,2.289542 -0.56456,1.129112 -1.12909,2.258182 -1.69363,3.38727 -1.014116,1.23366 -2.028184,2.467272 -3.042274,3.700907 -1.181388,0.888654 -2.362726,1.77727 -3.544088,2.665905 -0.909564,0.324098 -1.81909,0.648181 -2.728635,0.972272 -1.265023,0.09409 -2.529996,0.188182 -3.794995,0.282273 -0.188185,-0.05227 -0.376365,-0.104544 -0.564544,-0.156818 0.115001,-1.327753 0.229999,-2.655451 0.344998,-3.983178 0.313642,-1.024564 0.627271,-2.049089 0.940908,-3.073633 z"
       transform="translate(0.04987812,-16.667163)" /></g></svg>
