<?xml version="1.0" encoding="UTF-8" standalone="no"?>
<!-- Created with Inkscape (http://www.inkscape.org/) -->

<svg
   version="1.1"
   id="svg1"
   width="1024"
   height="1024"
   viewBox="0 0 1024 1024"
   xmlns="http://www.w3.org/2000/svg"
   xmlns:svg="http://www.w3.org/2000/svg">
  <defs
     id="defs1" />
  <g
     id="g1">
    <path
       style="fill:#000000"
       d="M 495,937.37847 C 276.996,921.75024 108.75172,761.33419 92.912842,554 l -1.184091,-15.5 0.589467,-26 0.589466,-26 2.067398,-16.79591 C 100.86412,421.86047 109.5907,387.4499 125.33222,350 l 6.09487,-14.5 0.0365,-11 0.0365,-11 2.66042,-5.04015 c 1.46323,-2.77208 4.68296,-6.90445 7.15495,-9.18305 l 4.49453,-4.14291 5.27646,-1.56695 C 153.98859,292.70512 157.12202,292 158.0497,292 h 1.6867 l 7.26225,-10.75 C 236.9853,177.6517 340.1765,114.13717 466.5,96.905918 l 15,-2.046086 26,-0.539698 26,-0.539698 17.23016,1.645723 C 680.11614,107.78434 791.68514,174.60198 862.65501,282.23509 L 869.09368,292 h 2.27502 c 15.37515,0 28.99937,18.70772 25.77921,35.398 l -0.945,4.89801 6.77704,16.15619 c 16.08265,38.3404 26.11142,77.67179 31.73896,124.47557 l 1.75212,14.57223 0.01,34 0.01,34 -1.77861,14.5 C 919.92751,690.53275 853.83305,796.00516 747.5,868.75021 682.00018,913.56025 573.6284,943.01516 495,937.37847 Z m -10.92738,-17.27649 c -6.19561,-8.70092 -20.25534,-17.99091 -31.09418,-20.54552 L 446.5,898.02956 433,897.99092 c -7.425,-0.0213 -15.29961,-0.45579 -17.49912,-0.96565 -2.26719,-0.52555 -4.37584,-0.55031 -4.86898,-0.0572 -1.56685,1.56685 7.29187,5.11042 18.70695,7.48295 10.32275,2.1455 22.56711,6.4221 46.66115,16.29736 10.0921,4.13638 11.4035,4.03137 8.07262,-0.64643 z m 62.95004,3.3863 c 12.58944,-6.51025 43.18203,-17.31827 54.85419,-19.37938 10.91225,-1.92692 15.66616,-3.64841 18.06843,-6.54296 L 621.24489,896 l -1.37245,0.0156 c -0.75484,0.009 -4.07244,0.66181 -7.37244,1.4516 l -6,1.43598 -10.01727,-0.58933 -10.01727,-0.58932 -8.48273,1.71691 c -5.03966,1.02003 -11.22347,3.15618 -15.23512,5.26285 l -6.7524,3.54594 -5.96114,6.37248 c -3.27862,3.50486 -6.44338,7.27356 -7.03279,8.37487 L 541.92963,925 h 1.08485 c 0.59666,0 2.40034,-0.68027 4.00818,-1.51172 z m -8.77258,-14.09475 c 28.18361,-24.35789 39.77488,-55.50631 25.36408,-68.15915 L 559.93041,838 l -4.71521,0.022 c -11.92006,0.0555 -24.17487,12.35506 -24.20543,24.29378 -0.0238,9.28179 2.44158,9.5799 12.91216,1.56138 l 7.99525,-6.12288 1.54141,0.5915 C 554.30636,858.6711 555,859.89526 555,861.06615 v 2.12887 L 546,872 l -9,8.80502 -0.006,2.84749 c -0.0111,5.65389 -2.3134,11.03129 -9.09287,21.23761 L 521,915.28023 v 3.41656 3.41657 l 4.08443,-2.43566 c 2.24644,-1.33961 8.17098,-5.96749 13.16565,-10.28417 z M 508,918.73519 c 0,-2.97787 -3.20632,-8.85243 -8.80084,-16.1247 -5.1388,-6.67991 -7.08515,-11.3246 -7.17011,-17.11049 l -0.0587,-4 -7.2361,-7.10037 c -13.86057,-13.60057 -12.51986,-22.82319 1.43912,-9.89963 6.57639,6.08857 7.98593,6.5384 10.26996,3.27749 C 503.14888,858.20393 488.0433,838 474.18,838 h -3.88423 l -3.39789,2.25807 c -1.86883,1.24194 -4.44407,4.27944 -5.72274,6.75 l -2.32485,4.49193 0.58093,6.74023 c 0.5757,6.67959 1.80676,10.05554 9.39342,25.75977 l 3.62323,7.5 10.93041,10.87157 C 497.9201,916.8351 508,923.53421 508,918.73519 Z m -99.55,-9.6725 c -0.5225,-0.51553 -4.775,-3.04801 -9.45,-5.62775 -4.675,-2.57973 -9.57319,-5.53294 -10.88486,-6.56268 C 386.80347,895.84252 385.31192,895 384.80058,895 c -0.51133,0 -2.01526,-1.29012 -3.34206,-2.86693 -6.2994,-7.48641 -30.05332,-11.19118 -31.26934,-4.87691 l -0.31387,1.62982 3.70327,0.69474 c 2.0368,0.38211 6.00236,1.59489 8.81235,2.69507 2.80999,1.10019 6.45907,1.9505 8.10907,1.88959 l 3,-0.11076 -1.35185,0.84465 -1.35184,0.84465 2.32435,1.62804 c 1.27839,0.89542 3.23672,1.59641 4.35185,1.55775 l 2.02749,-0.0703 -1.84695,-0.72681 -1.84695,-0.72681 1.55315,-1.28899 c 0.85422,-0.70895 2.09238,-0.95573 2.75145,-0.5484 l 1.19832,0.7406 -0.71353,-1.15451 c -1.24471,-2.01398 0.33787,-1.27042 6.40974,3.01158 3.24913,2.29135 5.62832,4.61782 5.28709,5.16994 -0.36746,0.59457 0.045,0.74851 1.01161,0.37758 0.89761,-0.34444 1.89799,-0.19592 2.22306,0.33006 0.32508,0.52598 -0.44801,0.97955 -1.71797,1.00793 l -2.30902,0.0516 6,2.37793 c 3.3,1.30786 7.3275,2.40965 8.95,2.44841 L 409.4,910 Z m 116.4361,-17.10738 2.10642,-3.45531 0.004,-4.79966 c 0.0116,-14.84994 -14.63085,-20.10671 -23.37678,-8.39249 l -2.0041,2.68427 0.0165,4.75394 c 0.0199,5.74984 1.73081,9.21653 7.97746,16.1643 l 4.75171,5.28505 4.20933,-4.39239 c 2.31513,-2.41582 5.15721,-5.94729 6.31574,-7.84771 z m 120.6139,9.78512 1,-1.03479 -1.75,0.64718 c -0.9625,0.35595 -2.39994,0.91071 -3.1943,1.23279 l -1.4443,0.58562 0.1571,-2.08562 C 640.3549,899.93853 641.02366,899 641.75462,899 c 0.73095,0 2.27834,-0.88444 3.43864,-1.96542 1.16029,-1.08098 2.46038,-1.74864 2.88909,-1.48369 0.4287,0.26495 1.06211,0.0244 1.40757,-0.53458 0.34546,-0.55897 1.16406,-1.00942 1.8191,-1.001 l 1.19098,0.0153 -1.39572,0.88376 c -0.81641,0.51694 -1.12299,1.59446 -0.73866,2.59603 l 0.65706,1.71226 -1.42858,-0.5482 c -0.78572,-0.30151 -1.6767,0.0984 -1.97996,0.88866 -0.8624,2.24738 0.77358,1.76444 10.39928,-3.06988 4.9354,-2.47871 12.01391,-5.30318 15.73002,-6.2766 L 680.5,888.44681 v -1.40984 c 0,-6.10116 -25.94091,-2.37708 -31.35101,4.50075 -0.99355,1.26309 -4.69602,4.16627 -8.22772,6.45151 -3.5317,2.28524 -5.46206,3.88412 -4.28969,3.55307 l 2.13157,-0.6019 0.6135,1.59875 0.6135,1.59875 2.25492,-0.68134 c 1.24021,-0.37474 2.70493,-1.147 3.25493,-1.71613 z M 428.50708,885.01145 c -0.36356,-0.58825 0.0878,-0.72041 1.11459,-0.32639 l 1.72555,0.66216 -0.64223,-1.67361 C 430.35177,882.75312 430.49865,882 431.03138,882 c 0.53274,0 0.99194,-1.4625 1.02044,-3.25 0.0285,-1.7875 1.06492,-7.1875 2.30315,-12 L 436.6063,858 h -11.80315 c -11.4501,0 -13.2997,0.51309 -10.43126,2.89368 0.75454,0.62621 2.38912,3.94381 3.6324,7.37244 1.24328,3.42863 2.72572,7.35888 3.29432,8.73388 0.56859,1.375 1.07151,2.90465 1.1176,3.39922 0.0461,0.49457 0.98379,1.25044 2.08379,1.67971 l 2,0.7805 -1.5,0.10209 -1.5,0.10209 1.94113,1.46819 c 2.2147,1.67512 3.97498,1.9505 3.06595,0.47965 z M 606,884.93312 C 606,884.4199 605.46399,884 604.80887,884 c -0.71369,0 -0.5575,-0.50104 0.38966,-1.25 0.86943,-0.6875 2.12916,-3.05 2.7994,-5.25 0.67024,-2.2 2.98406,-7.32333 5.14184,-11.38517 4.7861,-9.00948 5.19481,-8.60184 -8.63159,-8.60898 -13.42392,-0.007 -12.8453,-0.36243 -10.60841,6.51782 0.97924,3.01198 2.36407,8.95227 3.0774,13.20064 0.71333,4.24837 1.68528,7.48431 2.15989,7.19098 0.47462,-0.29333 0.86294,-0.12525 0.86294,0.37351 0,0.49876 1.35,0.94522 3,0.99214 1.65,0.0469 3,-0.33461 3,-0.84782 z M 407.37858,882.25 c -4.72955,-19.72061 -17.72099,-33.94952 -37.21565,-40.76054 -11.15513,-3.89738 -11.09802,-3.93145 -8.1548,4.86587 4.80768,14.37021 23.58935,35.54805 29.51079,33.27578 0.87173,-0.33451 1.33921,-0.21058 1.03886,0.2754 -0.30035,0.48598 2.71378,1.79604 6.69806,2.91124 9.30588,2.60473 8.89055,2.63376 8.12274,-0.56775 z m 224.668,-0.26522 C 649.27699,876.35414 669,854.51009 669,841.05733 v -2.14796 l -3.75,0.67308 c -18.32031,3.28824 -33.04912,16.04822 -41.09072,35.59803 -4.71552,11.46384 -5.17046,11.07138 7.8873,6.8043 z M 699.5,872.44188 c 10.83974,-1.3742 28.5,-8.32045 28.5,-11.20981 0,-0.74256 0.42163,-1.08952 0.93696,-0.77103 1.33791,0.82687 12.06304,-4.62695 12.06304,-6.13417 0,-0.69108 -1.0125,-1.81423 -2.25,-2.4959 l -2.25,-1.23939 -14.5,0.10947 -14.5,0.10947 -7.94198,2.10293 c -17.3635,4.59762 -37.37818,18.42832 -27.30802,18.87061 1.7875,0.0785 4.99829,0.37 7.1351,0.64777 2.1368,0.27777 3.64053,0.26047 3.34163,-0.0384 -0.59661,-0.5966 -3.12255,-1.15932 -6.22673,-1.38716 l -2,-0.1468 2,-0.79322 c 1.1,-0.43628 2.225,-0.51715 2.5,-0.17972 0.275,0.33743 1.4,0.76877 2.5,0.95853 1.1,0.18976 2.54091,0.78944 3.20201,1.33262 0.66111,0.54318 2.17996,0.67721 3.37523,0.29784 l 2.17322,-0.68975 -0.75034,1.21407 -0.75033,1.21407 2.8751,-0.56906 c 1.58131,-0.31298 5.12511,-0.8543 7.87511,-1.20293 z m -355.73458,-1.27296 0.51291,-1.33661 0.80496,1.30246 0.80497,1.30246 5.39332,-0.078 c 2.96634,-0.0429 6.19767,-0.52809 7.18074,-1.07825 l 1.78741,-1.00028 -6.37486,-5.30565 c -7.50294,-6.24452 -14.07376,-9.34733 -25.58391,-12.08099 l -8.40269,-1.99563 -11.69413,-0.19924 c -18.77928,-0.31994 -23.88061,1.87321 -14.94414,6.42473 2.3375,1.19054 5.6005,3.19266 7.25111,4.44918 4.38002,3.33424 17.82864,8.89376 24.39432,10.08434 1.40773,0.25527 2.75975,0.66436 3.00448,0.90909 0.24472,0.24473 3.79918,0.33111 7.89878,0.19196 l 7.45383,-0.253 z M 520.66746,852.25 c 1.90902,-2.0625 4.78945,-6.45 6.40095,-9.75 l 2.93001,-6 7.9e-4,-5.78984 7.9e-4,-5.78984 -1.90842,-3.71016 c -1.04963,-2.04059 -3.26542,-4.99908 -4.92399,-6.57443 l -3.01557,-2.86427 -4.4103,-0.4971 -4.41029,-0.49711 -3.11402,1.61032 c -4.66652,2.41316 -8.19145,7.6858 -9.13699,13.66725 l -0.82961,5.24807 1.18627,5.09855 c 1.40094,6.02116 3.47444,9.5778 8.94813,15.34856 l 4.03121,4.25 h 2.39004 2.39005 z m -185.69285,-11 c -0.0475,-1.40154 -9.45685,-12.07153 -13.40793,-15.20422 -5.99364,-4.75216 -15.52066,-8.89806 -25.79067,-11.22338 L 286.5,812.72213 273,812.61107 c -15.02791,-0.12364 -25.98633,0.92114 -28.40572,2.7082 l -1.59851,1.18073 8.25356,5.58194 c 14.2055,9.60726 27.49432,13.39667 54.3295,15.49247 6.44254,0.50315 16.29108,1.97527 28.67117,4.28563 0.4125,0.077 0.73857,-0.19754 0.72461,-0.61004 z m 113.74044,-3.80146 4.75016,-4.55146 -3.4826,-2.09976 c -1.91544,-1.15487 -5.47964,-3.35069 -7.92045,-4.8796 l -4.43784,-2.77984 9.63235,0.57467 9.63235,0.57468 5.89597,-5.98823 c 3.24278,-3.29352 8.66775,-7.51202 12.05549,-9.37444 8.57334,-4.71321 8.10595,-5.07024 -12.34048,-9.42642 -8.6606,-1.84517 -22.31367,-7.09288 -28.32241,-10.88603 -25.28356,-15.96081 -56.87808,-20.31805 -80.06245,-11.0415 -5.02856,2.01203 -5.06748,1.51036 0.51647,6.65747 8.94362,8.24394 16.13869,20.76865 20.99012,36.53826 l 2.85074,9.26633 1.27155,-0.48794 c 1.18208,-0.4536 10.14526,0.53552 18.23245,2.01203 1.91206,0.34909 7.98706,2.16444 13.5,4.03411 5.51294,1.86968 11.1184,3.65033 12.45658,3.95702 1.33818,0.30669 3.13818,0.97019 4,1.47445 0.86182,0.50426 4.82155,0.93053 8.79939,0.94725 L 443.96488,842 Z m 150.45866,3.45282 c 2.92946,-0.60426 10.27629,-2.62403 16.32629,-4.48839 14.01785,-4.31973 24.60825,-6.56738 31.19568,-6.62082 l 5.19567,-0.0421 0.9596,-4.125 c 0.52778,-2.26875 1.51382,-5.7 2.19119,-7.625 0.67738,-1.925 1.83983,-5.30148 2.58322,-7.5033 2.37308,-7.02871 8.67401,-16.54716 15.62464,-23.60326 7.87379,-7.99325 7.68394,-7.47637 3.40299,-9.26507 -21.41455,-8.94757 -49.81022,-5.53272 -78.15299,9.39864 -11.9962,6.31977 -22.50268,9.97209 -35.91717,12.48574 -12.18134,2.28253 -20.57738,6.4872 -12.95399,6.4872 2.36931,0 10.28439,5.70418 17.04734,12.28555 l 6.17619,6.01035 7.82381,-0.55826 c 4.3031,-0.30705 8.72382,-0.86423 9.82382,-1.23818 1.1,-0.37396 -1.4875,1.63008 -5.75,4.4534 -8.1055,5.36878 -8.92916,6.67004 -5.93635,9.3785 l 1.81366,1.64133 1.13039,-1.13039 1.1304,-1.1304 -0.51271,1.9606 -0.51271,1.9606 2.31866,1.11577 c 3.03331,1.45967 8.39088,1.51416 14.99237,0.15249 z m -249.58697,-3.41179 c -0.34655,-1.38074 -0.88066,-4.64108 -1.18693,-7.24519 C 347.7156,824.42671 347,823.41958 347,828.27432 c 0,4.79408 -1.61434,5.56566 -3.75933,1.79679 -0.95737,-1.68216 -2.07817,-3.06131 -2.49067,-3.06479 -0.4125,-0.003 -0.75,-0.70788 -0.75,-1.56534 0,-0.85746 -0.45,-1.2809 -1,-0.94098 -0.55,0.33992 -1,0.17447 -1,-0.36766 0,-0.54213 0.5625,-1.17808 1.25,-1.41322 0.6875,-0.23513 0.26508,-0.26648 -0.93871,-0.0697 -1.2038,0.19683 -2.46786,-0.0938 -2.80902,-0.6458 C 335.1611,821.45165 335.38508,821 336,821 c 0.61492,0 0.83538,-0.45734 0.48992,-1.01631 -0.34546,-0.55897 -1.04187,-0.7606 -1.54756,-0.44806 -0.5057,0.31253 -0.65245,-0.12754 -0.32612,-0.97795 0.32633,-0.85041 1.06571,-1.25425 1.64305,-0.89743 0.62811,0.38819 0.75109,0.16556 0.30619,-0.5543 l -0.74354,-1.20307 -1.60293,1.29856 -1.60293,1.29856 0.82015,-1.36192 0.82015,-1.36193 -3.90432,-3.63807 C 328.20468,810.13713 325.56272,807.375 324.48102,806 l -1.96671,-2.5 2.49284,2.15225 c 1.37107,1.18375 3.96988,3.51536 5.77513,5.18137 1.80525,1.66601 6.61864,4.97249 10.69642,7.34774 l 7.41414,4.31864 -1.69642,0.65121 c -0.99978,0.38379 -0.25914,0.61039 1.80358,0.55181 1.925,-0.0547 5.8625,0.88321 8.75,2.08419 l 5.25,2.18361 v -1.92496 c 0,-14.55252 -27.341,-42.60453 -46.4535,-47.66154 -6.32688,-1.67405 -6.24432,-1.86621 -3.10456,7.22583 5.06436,14.66523 13.76606,28.85846 25.99068,42.39309 2.23706,2.47678 5.41738,6.17894 7.06738,8.22703 3.56133,4.42054 3.91653,4.56545 3.08674,1.2593 z m 359.47758,1.54653 2.43568,-1.03682 -4.76426,0.2587 -4.76425,0.2587 0.5028,-1.31028 c 0.27654,-0.72065 0.0891,-1.05456 -0.41665,-0.74203 -0.50569,0.31254 -1.2021,0.11091 -1.54756,-0.44806 -0.34546,-0.55897 0.0734,-1.01631 0.9309,-1.01631 2.45726,0 2.99261,-0.12063 4.05902,-0.91461 0.55,-0.40949 2.7243,-0.8378 4.83178,-0.95179 l 3.83178,-0.20727 -0.65088,1.05315 c -0.35798,0.57923 -1.13931,0.75127 -1.73629,0.38232 -0.62711,-0.38757 -0.79943,-0.20809 -0.40811,0.42508 l 0.67731,1.0959 -3.7728,0.41144 -3.77279,0.41144 4.26426,-0.11117 4.26425,-0.11117 -0.48287,1.25834 L 712.06277,839 h 2.41892 c 1.33041,0 2.87761,-0.7875 3.43821,-1.75 0.56568,-0.97121 1.03282,-1.19372 1.04969,-0.5 0.038,1.5614 6.03041,1.68815 6.03041,0.12756 v -1.12245 l 1.34201,1.11377 c 0.7381,0.61257 1.5256,0.93717 1.75,0.72133 0.22439,-0.21584 3.33299,-0.69886 6.90799,-1.07337 14.4324,-1.51194 37,-8.5276 37,-11.5023 0,-0.52347 -0.7875,-0.67466 -1.75,-0.33598 l -1.75,0.6158 1.20762,-1.3048 1.20762,-1.3048 1.31595,1.09215 1.31596,1.09215 6.25803,-3.97888 c 7.28099,-4.62928 7.23191,-5.24873 -0.53083,-6.69969 C 757.44174,810.1097 733.67086,812.5821 717,820.66764 l -7.5,3.63758 -6.81857,6.996 c -4.03941,4.14452 -6.38006,7.267 -5.74272,7.6609 1.81684,1.12287 9.55074,1.17006 12.12561,0.074 z m -15.71936,-15.30294 c 2.47478,-2.89677 4.64708,-5.91102 4.82732,-6.69834 0.18025,-0.78733 1.45272,-2.41267 2.82772,-3.61188 1.375,-1.19921 3.45297,-3.92245 4.6177,-6.05166 1.16474,-2.1292 3.63974,-6.37769 5.5,-9.44107 8.62037,-14.19559 9.30591,-21.54193 1.80236,-19.31438 -20.4073,6.05826 -36.85749,21.92308 -45.02775,43.42548 l -1.97905,5.20843 2.29337,-0.55499 c 4.9797,-1.20506 12.52118,-4.00827 16.9287,-6.29248 C 687.68476,819.08102 690.30077,818 690.94869,818 h 1.17803 l -0.31336,3.17299 c -0.17235,1.74514 -0.88992,3.36233 -1.59461,3.59375 -0.70469,0.23142 -1.15469,-0.12236 -1,-0.78618 0.15469,-0.66381 -0.72792,-1.37767 -1.96135,-1.58634 l -2.24259,-0.37941 1.96991,1.96991 c 1.08346,1.08346 1.70698,2.65512 1.38561,3.4926 -1.03678,2.70181 0.37626,1.63828 4.97463,-3.74416 z M 305.62985,800.25205 C 297.23347,788.18818 292.87489,784.38888 284,781.39769 l -5.5,-1.85372 -11.5,0.0311 c -20.50567,0.0554 -51,13.1989 -51,21.98171 v 1.40166 l 12.75,-0.58959 c 7.0125,-0.32428 18.37437,-0.87742 25.24861,-1.22921 l 12.49861,-0.63962 -0.31626,-3.64591 -0.31626,-3.64591 2.29016,-1.60409 C 271.08739,789.55006 271.58368,789.58368 274,792 l 2,2 v 3.38478 3.38477 l 5.75,0.67302 c 7.93008,0.92818 18.9579,3.20016 23.75,4.89304 5.47946,1.9357 5.48636,1.61265 0.12985,-6.08356 z M 734.5,803.67153 c 4.4,-0.84584 10.53499,-1.81878 13.63331,-2.16209 l 5.6333,-0.62419 -0.1333,-5.19263 L 753.5,790.5 l 2.19842,-0.31279 c 1.20912,-0.17204 3.12162,0.1813 4.25,0.78518 L 762,792.07037 v 4.2811 4.2811 l 25.72441,1.12597 c 29.41554,1.28754 27.99498,1.54459 22.18653,-4.01453 -17.93128,-17.16153 -51.94842,-23.92392 -70.24691,-13.96464 l -4.96856,2.70423 -5.17848,6.5082 C 724.56029,799.22128 720,806.08553 720,807.31701 c 0,0.31951 1.4625,-0.024 3.25,-0.76333 1.7875,-0.73934 6.85,-2.03631 11.25,-2.88215 z m -217,-6.09164 15,-0.0799 5,-2.62537 c 5.5851,-2.93258 15.47042,-5.34779 26,-6.35239 15.26765,-1.45665 40.69571,-10.87987 37.44444,-13.87629 -3.77636,-3.48036 -17.28143,-10.7717 -23.52049,-12.69864 L 569.5,759.5 l -13.5,0.0122 -13.5,0.0122 -7.80932,2.25099 c -9.51182,2.74172 -14.23472,5.08999 -28.86292,14.35087 -6.23027,3.94429 -15.09696,9.40534 -19.70376,12.13567 l -8.376,4.96424 1.376,0.87158 c 0.7568,0.47937 2.501,0.88847 3.876,0.90912 1.375,0.0206 3.625,0.93405 5,2.02976 l 2.5,1.99221 6,-0.68455 c 3.3,-0.37651 12.75,-0.72051 21,-0.76445 z m -39.75125,-13.74036 c 10.36567,-4.54603 10.82242,-5.12821 5.50125,-7.01198 L 479.5,775.5 H 467 454.5 l -5.5,1.70596 c -3.025,0.93828 -6.4,2.36679 -7.5,3.17446 l -2,1.4685 5,2.23191 c 13.02183,5.81269 19.55275,5.7653 33.24875,-0.2413 z m -256.29674,-1.80987 3.5082,-2.16819 1.06243,-3.94555 c 1.47514,-5.47827 0.25449,-10.64289 -3.47807,-14.71581 l -3.16862,-3.45757 -4.93798,-0.41353 c -5.9056,-0.49456 -9.02846,0.93959 -12.15795,5.58344 L 200,766.29577 l 0.004,4.60211 0.004,4.60212 2.01595,3.30655 c 3.83762,6.29443 12.21136,7.6836 19.42858,3.22311 z m 600.56617,1.34639 c 8.44446,-3.3788 10.13538,-15.68402 3.11934,-22.70007 l -3.00003,-3.00003 -5.31875,-0.39365 -5.31874,-0.39364 -3.08004,1.93761 c -14.56004,9.15953 -2.4734,30.98037 13.59822,24.54978 z M 442.84452,769.2521 453.5,765.50421 l 14,-0.002 14,-0.002 7.1924,2.26129 7.1924,2.26129 3.5576,-1.6965 c 5.07972,-2.42235 4.89642,-2.57002 -9.1924,-7.40539 l -12.75,-4.37588 -11,0.003 -11,0.003 -10.89288,3.22469 c -14.03242,4.1541 -22.56941,3.79363 -41.60052,-1.75652 C 401.08523,757.45846 397.17009,757 394.30629,757 h -5.20691 l -0.95954,1.7146 c -0.52775,0.94303 -2.41461,2.20452 -4.19303,2.80331 l -3.23348,1.0887 10.89333,1.25308 c 11.43522,1.31542 22.17175,3.73535 31.39334,7.07581 7.32795,2.65451 7.56996,2.63398 19.84452,-1.6834 z M 250.25,767.75325 c -1.7875,-0.57341 -3.25,-1.38008 -3.25,-1.7926 0,-1.02414 6.98228,0.62163 8.32226,1.96161 1.38643,1.38643 4.67774,1.3996 4.67774,0.0187 0,-0.58246 0.45,-0.7809 1,-0.44098 1.87959,1.16165 1.01299,-4.54107 -1.41071,-9.28324 -6.35291,-12.43003 -16.71235,-16.43328 -35.83929,-13.84957 -6.11099,0.82549 -7.36751,2.01003 -3.23294,3.04774 4.04365,1.01489 12.48951,6.95304 19.28906,13.56183 6.17175,5.99862 9.1776,7.93559 12.19388,7.85777 0.825,-0.0213 0.0375,-0.50786 -1.75,-1.08128 z m 376.99346,-1.42064 13.25654,-2.6674 11.5,0.0257 c 11.52317,0.0257 18.97643,1.07857 28.70987,4.0556 l 5.20986,1.59347 4.04014,-1.82184 c 3.23412,-1.45839 5.4059,-3.5181 3.70951,-3.5181 -0.18185,0 -6.36935,-1.87005 -13.75,-4.15567 L 666.5,755.68866 l -15.5,-0.0584 -15.5,-0.0584 -9.5,2.62303 c -5.225,1.44267 -13.00356,3.17834 -17.28568,3.85704 l -7.78568,1.23401 0.34523,1.10704 c 1.49579,4.7965 8.98979,5.35622 25.96959,1.93966 z M 778,766.5 c 1.29175,-1.375 2.75233,-2.5 3.24574,-2.5 1.25805,0 3.75412,-2.63177 3.20664,-3.38095 -0.24881,-0.34048 -0.16821,-0.40988 0.1791,-0.15423 0.34732,0.25565 1.47232,0.0148 2.5,-0.53519 2.52941,-1.35369 2.3629,-0.093 -0.2918,2.20942 -1.18818,1.0305 -1.92307,2.1109 -1.63308,2.40088 0.28998,0.28998 1.88331,-1.01724 3.54073,-2.90493 2.81004,-3.20047 17.31354,-13.78514 20.38129,-14.8743 3.4593,-1.22818 -1.24775,-2.28196 -11.67103,-2.61284 l -11.38501,-0.36141 -4.5146,2.18548 C 775.71088,748.80246 768,758.6614 768,763.30682 v 1.40614 l 2.9017,-0.10648 c 1.59593,-0.0586 2.72351,-0.39683 2.50574,-0.7517 -0.57315,-0.93395 2.32744,-1.87118 5.42435,-1.75269 l 2.66821,0.10209 -3.25,1.04257 -3.25,1.04257 -0.0153,2.10534 L 774.96937,768.5 774,767 l -0.96937,-1.5 -0.0153,1.37244 L 773,768.24489 771.5,767 c -0.90562,-0.7516 -1.5,-0.83314 -1.5,-0.20578 0,0.57151 0.5625,1.26609 1.25,1.5435 2.6521,1.07015 4.48769,0.5704 6.75,-1.83772 z m -41.20995,-16.11776 c 1.25952,-0.35005 2.91498,-1.84495 3.6788,-3.322 0.76381,-1.47705 3.42418,-4.94943 5.91192,-7.7164 l 4.52317,-5.03086 -2.42824,-5.90649 c -1.33552,-3.24857 -2.43891,-6.66743 -2.45196,-7.59747 -0.0378,-2.6924 -1.44667,-2.92144 -8.19078,-1.33155 -33.00762,7.78139 -62.90919,-10.1559 -67.78243,-40.66117 l -1.04014,-6.51103 0.95048,-7.49666 c 3.5833,-28.2622 24.23259,-45.33832 54.53913,-45.10165 l 10,0.0781 7,2.22014 c 3.85,1.22107 8.74104,3.1059 10.86898,4.1885 4.61077,2.34574 4.95449,2.0472 6.55541,-5.69369 0.68248,-3.3 2.34785,-9.57139 3.70082,-13.93642 l 2.45995,-7.93642 -1.78458,-1.06358 C 759.17276,595.10347 747.98008,590.94921 741,589.28653 l -7.5,-1.78653 -15,0.10994 -15,0.10995 -8.79659,2.64917 C 656.11024,601.99178 632.28964,633.68741 632.60278,673 l 0.0836,10.5 1.74576,7 c 10.50554,42.12418 60.66564,71.46926 102.35787,59.88224 z M 361.25,750.00184 372,750 V 737 724 H 339.5 307 V 702.5 681 h 19 19 v -12 -12 h -19 -19 v -19.63546 -19.63547 l 31.75,0.38547 31.75,0.38546 0.27822,-13.75 0.27822,-13.75 H 319.52822 268 v 36.10979 36.10979 l 4.85125,5.30804 C 281.46985,677.95775 285,687.75164 285,702.23261 v 9.91476 l -2.56457,7.67631 c -1.41052,4.22198 -3.2173,8.68333 -4.01506,9.91412 l -1.45049,2.23781 4.55985,4.76219 c 2.50791,2.61921 6.00219,6.96663 7.76506,9.66093 l 3.20521,4.89874 29,-0.64689 c 15.95,-0.35579 33.8375,-0.64772 39.75,-0.64874 z m 175.1776,-0.0991 c 0.33012,-0.32849 -1.93076,-5.05349 -5.02419,-10.5 C 499.3942,683.0449 497.77304,679.24583 504.13463,675.5 c 26.8999,-15.83919 24.31353,-58.7755 -4.50501,-74.78769 -14.70073,-8.16803 -24.89433,-9.69269 -64.87962,-9.70411 L 406,591 v 79.5 79.5 h 20 20 v -29.03893 -29.03894 l 8.64191,0.28894 8.64192,0.28893 15.10808,28.05442 c 8.30945,15.42993 15.40363,28.47993 15.76484,29 0.70953,1.02155 41.25848,1.3557 42.27085,0.34834 z M 446,644.03906 v -26.23991 l 12.83031,0.35043 12.8303,0.35042 4.89326,3.02644 4.89326,3.02643 2.90859,4.70454 2.9086,4.70454 0.47918,6.76903 c 0.57825,8.16846 -0.7577,13.60808 -4.66773,19.00573 l -2.93015,4.04495 -5.6057,2.74261 -5.6057,2.74261 -11.46711,0.50605 L 446,670.27897 Z m 164,105.6478 c 0,-0.72222 -1.71612,-4.20972 -3.8136,-7.75 -5.74725,-9.7006 -24.8115,-45.14242 -25.55765,-47.51352 l -0.65349,-2.07665 -3.704,-0.92335 -3.70399,-0.92334 -2.28364,-3.39788 c -4.25737,-6.33467 -2.07351,-14.7712 4.95723,-19.15041 l 3.25914,-2.03 6.10174,0.28914 6.10174,0.28915 0.64563,-20 c 0.81104,-25.12369 0.81484,-46.87495 0.009,-51.75 L 590.73832,591 H 570.36916 550 v 42.5 42.5 h -8.5 -8.5 l 0.0153,1.25 c 0.0352,2.8755 1.92872,3.77078 9.2915,4.39316 l 7.69319,0.65031 0.0258,11.60327 c 0.0794,35.73276 5.64311,49.4925 22.34626,55.2656 l 5.12794,1.77237 16.25,0.0326 L 610,751 Z m -339,-2.51645 c 0,-4.76278 -16.71878,-17.90235 -27.5,-21.6127 l -8,-2.7532 -13.29832,-1.10454 -13.29832,-1.10453 -20.70168,1.77385 C 176.81576,723.34492 166.825,724.38431 166,724.67905 l -1.5,0.53589 4,1.50924 4,1.50923 23.5,0.82734 c 37.6649,1.32601 51.95774,4.69119 67.5,15.89254 3.90637,2.81533 7.5,3.87766 7.5,2.21712 z m 498.66441,-4.84579 9.51043,-5.67537 8.16258,-2.37456 c 12.36713,-3.59768 26.38289,-5.23611 44.96517,-5.25637 l 16.8026,-0.0183 6.93637,-1.57765 c 10.18661,-2.31689 9.3531,-2.85966 -6.85953,-4.46687 -29.66808,-2.9411 -53.18947,-1.60666 -67.6032,3.83533 l -7.07883,2.67266 -7.75,7.81579 c -11.79492,11.89505 -10.96665,13.32893 2.91441,5.04536 z M 267.306,716.69776 l 2.80599,-5.64563 0.57987,-6.91667 c 0.31893,-3.80416 0.28516,-8.09089 -0.0751,-9.52606 L 269.9619,692 h -2.83091 c -3.17301,0 -9.34998,4.09468 -13.35228,8.85115 -3.14,3.73167 -3.58391,3.78635 -8.27388,1.0192 l -3.60949,-2.12965 -3.0959,0.88789 c -1.70275,0.48834 -3.98782,2.08251 -5.07793,3.5426 l -1.98202,2.6547 0.61753,2.46047 c 1.09342,4.35651 8.43369,5.79105 16.40784,3.20664 l 2.26486,-0.73404 -0.55909,1.45698 -0.55909,1.45698 6.2316,4.18441 c 7.47143,5.01694 7.60923,4.99028 11.16286,-2.15957 z m 505.444,1.3881 5.25,-3.38481 v -1.85053 c 0,-2.23711 1.30748,-2.38988 3,-0.35052 l 1.24489,1.5 h 4.68899 4.689 l 2.18856,-2.03896 c 4.2625,-3.97112 1.58922,-10.05522 -5.05982,-11.51559 l -2.97812,-0.65411 -2.84626,2.10433 c -3.98183,2.9439 -4.92054,2.71076 -9.96903,-2.47588 C 767.87012,694.19247 764.20915,692 760.56871,692 h -2.53061 l -0.60806,2.42271 c -1.31745,5.24914 2.20153,20.29946 6.16199,26.35421 l 1.48935,2.27692 1.20931,-0.79159 c 0.66512,-0.43537 3.57181,-2.31475 6.45931,-4.17639 z M 213.99023,710.75 c -0.0449,-5.74676 -8.32555,-17.0455 -13.8217,-18.85939 l -3.50158,-1.15563 -1.33347,1.82364 c -6.03422,8.25228 0.78539,19.36083 11.91652,19.41097 L 214,712 Z m 617.52209,-0.40518 c 3.1331,-3.13309 4.67281,-12.09285 2.88069,-16.76303 L 833.78602,692 h -3.02497 c -6.27073,0 -11.56824,5.53345 -15.22795,15.90619 L 814.08872,712 h 7.88421 7.88421 z m -657.6583,-7.16422 -4.35891,-5.6806 -5.67184,-2.83796 -5.67184,-2.83796 -6.07571,-0.55093 L 146,690.72222 v 1.43068 c 0,3.56301 15.38401,14.8471 20.24159,14.8471 0.79812,0 2.86454,0.7051 4.59204,1.56689 1.72749,0.86179 3.56553,1.30445 4.08454,0.98369 0.519,-0.32076 1.28212,-0.0355 1.69582,0.63385 l 0.75218,1.21706 0.42338,-1.27014 c 0.23286,-0.69859 -1.53813,-3.82642 -3.93553,-6.95075 z m 687.11346,4.94863 C 876.41807,702.66171 888.77813,691 879.12248,691 c -9.199,0 -18.96576,5.58962 -25.12158,14.37734 L 850.06221,711 h 1.39642 c 0.76802,0 5.04701,-1.29184 9.50885,-2.87077 z M 730.5,707.95817 c 3.85,-0.55121 7.7875,-1.24762 8.75,-1.54757 L 741,705.86522 V 702.43261 699 h -22.62244 -22.62245 l 1.23486,1.48792 c 5.33282,6.42564 19.20562,9.51825 33.51003,7.47025 z m -335.32366,-4.01012 c 0.21253,-2.22858 0.1848,-4.25358 -0.0616,-4.5 C 394.86829,699.20162 376.96667,699 355.33333,699 H 316 v 3.83333 C 316,708.28662 313.77756,708 356.06163,708 h 38.7283 z m 227.34417,0.30957 C 621.50241,698.83069 621.95538,699 608.45398,699 h -12.42799 l 2.18627,4.5 2.18627,4.5 h 11.41203 11.41202 z M 225.8838,699.47237 c 1.14474,-1.94019 4.09997,-4.75269 6.56717,-6.25 l 4.48581,-2.72237 0.0316,-5.81574 c 0.0356,-6.55683 1.06763,-9.21223 4.80559,-12.36518 l 2.58558,-2.18091 -1.25977,-1.51793 c -5.92379,-7.13773 -19.60289,-2.51896 -24.35482,8.22344 l -1.92144,4.34369 v 6.80719 c 0,11.95812 5.02268,18.32101 9.06027,11.47781 z M 809.70785,698.25 812.5,693.5 l -0.01,-6.5 -0.01,-6.5 -2.34269,-4.77719 c -1.28848,-2.62745 -3.93927,-5.99495 -5.89063,-7.48333 l -3.54794,-2.70615 h -5.76313 -5.76312 l -2.10725,1.90704 -2.10724,1.90703 2.39849,2.5763 c 3.79907,4.08071 4.90685,7.036 4.77537,12.73948 l -0.1226,5.31799 4.02853,2.5431 c 2.21569,1.3987 5.25096,4.31086 6.74504,6.47146 3.43965,4.9741 3.5704,4.96001 6.92437,-0.74573 z m -626.25756,-6.99055 c 0.36952,-1.5177 3.36373,-8.34276 6.6538,-15.16681 6.46146,-13.40192 6.80614,-15.4272 2.70639,-15.9024 l -2.67242,-0.30976 -4.00943,3.62227 -4.00942,3.62228 -1.5106,4.68749 c -0.83082,2.57811 -1.80466,6.35865 -2.16408,8.4012 l -0.6535,3.71372 1.73464,5.51486 c 1.83887,5.84625 2.83172,6.30596 3.92462,1.81715 z m 70.53041,-0.36418 c 7.9638,-6.39988 7.57338,-17.83312 -0.71659,-20.98496 l -2.53407,-0.96345 -2.27578,1.49115 c -1.25168,0.82013 -2.81729,3.13196 -3.47915,5.1374 l -1.20337,3.64625 0.67392,5.13917 c 1.27005,9.68531 3.61473,11.29213 9.53504,6.53444 z m 528.5573,0.68708 1.58411,-2.41765 0.13975,-6.33235 0.13975,-6.33235 -1.68984,-3.17913 C 778.5295,665.45265 769,671.214 769,681.61074 v 2.67497 l 4.85714,4.85715 c 5.53563,5.53562 6.47857,5.80061 8.68086,2.43949 z m 66.32552,-2.48157 C 849.48858,687.2312 850,683.3744 850,680.53009 v -5.17146 l -2.75,-5.42828 c -2.93989,-5.80309 -8.25607,-10.21683 -11.71021,-9.72235 -3.48015,0.49819 -2.82921,3.91831 2.84099,14.92683 3.0025,5.82927 6.02068,12.47307 6.70706,14.76401 1.35841,4.53397 2.04125,4.38964 3.77568,-0.79806 z m 23.76395,-8.77257 c 10.53888,-4.61546 17.64872,-9.14736 19.7779,-12.60668 L 893.5,665.94307 892,664.94333 c -3.72079,-2.47987 -17.05323,1.81531 -22.83929,7.35789 -2.98449,2.8589 -8.94909,12.69878 -7.69757,12.69878 0.27325,0 5.2972,-2.10231 11.16433,-4.67179 z M 165.99496,682.25 c -0.003,-0.9625 -1.69027,-4 -3.75,-6.75 l -3.74496,-5 -5.5,-2.69745 c -3.025,-1.48359 -7.63231,-2.99641 -10.23848,-3.36181 l -4.73847,-0.66437 -0.63804,1.6627 -0.63804,1.66269 2.37652,2.56877 c 3.35998,3.6318 9.1841,7.18941 17.87651,10.9197 9.00518,3.86452 9.00131,3.8638 8.99496,1.65977 z m 228.80748,-2.86943 0.30244,-2.11942 -14.99333,-0.72301 c -8.24634,-0.39766 -16.36994,-0.42066 -18.05244,-0.0511 L 359,677.15891 v 2.44362 2.44362 L 376.75,681.77307 394.5,681.5 Z m 353.58255,0.15461 c 0.88826,-1.35565 1.61474,-2.59315 1.61441,-2.75 -0.001,-0.59239 -64.96068,-0.15723 -65.55708,0.43917 -0.34371,0.34371 -0.32852,1.55884 0.0338,2.70029 L 685.13478,682 h 30.8176 30.8176 z M 172.20461,660.23983 c 0.93754,-2.05691 3.50921,-6.60773 5.71483,-10.11294 6.75313,-10.73218 8.70385,-20.32167 4.26253,-20.95402 -5.16309,-0.73511 -11.3286,6.33458 -13.74283,15.75822 l -1.6186,6.31802 1.20296,6.37544 c 1.39523,7.39444 1.86799,7.69015 4.18111,2.61528 z m 685.91133,-2.34576 c -2.93042,-3.14544 -2.66799,-4.76132 0.31773,-1.95638 l 2.43368,2.28632 0.65844,-3.5098 c 1.61254,-8.59555 -4.29261,-22.20477 -11.02861,-25.41695 l -3.53655,-1.68646 -1.58356,1.58355 -1.58355,1.58356 1.69012,5.86104 c 0.92957,3.22358 3.5056,9.23605 5.72452,13.36105 2.21891,4.125 4.76037,8.98854 5.64768,10.80786 l 1.6133,3.30786 0.88137,-1.97522 0.88137,-1.97523 z M 757.25,659.07581 763,659 v -1.5 -1.5 h -37 -37 v 1.42668 c 0,2.11743 11.5551,2.39664 68.25,1.64913 z M 885,650.91729 c 12.7712,-4.86506 20.74398,-12.23261 22.51932,-20.80983 l 0.7022,-3.39253 -4.36076,0.50438 c -6.0462,0.69934 -13.0082,4.20865 -18.9531,9.55362 l -5.03227,4.52445 -3.4377,6.82634 c -3.9606,7.86471 -4.04594,8.21676 -1.68769,6.9624 0.9625,-0.51196 5.575,-2.38793 10.25,-4.16883 z m -729,3.47269 c 0,-8.75751 -20.57731,-27.38916 -30.25,-27.38975 L 122,627 l 0.022,1.25 c 0.068,3.87097 7.90275,15.75 10.38782,15.75 0.53042,0 -0.35729,-1.40514 -1.97269,-3.12254 l -2.93709,-3.12253 4.99204,2.62253 c 2.74563,1.4424 5.60627,2.62254 6.35699,2.62254 h 1.36495 l -0.6007,1.56539 -0.6007,1.56539 2.14498,-0.68079 2.14498,-0.68079 -0.58813,1.53264 c -0.62895,1.63902 1.8545,3.2047 2.7598,1.7399 0.29604,-0.47901 -0.0271,-1.09883 -0.71798,-1.37738 l -1.25623,-0.50647 1.19098,-0.0789 c 0.65504,-0.0434 1.45695,0.3514 1.78203,0.87738 0.32507,0.52598 1.36413,0.71424 2.30902,0.41836 l 1.71797,-0.53796 -1.98054,1.61045 -1.98055,1.61046 -3.01945,-0.55845 c -1.6607,-0.30715 0.13054,0.75805 3.98054,2.36712 7.60413,3.17806 8.5,3.44405 8.5,2.52367 z m 59.69553,-4.34589 3.19553,-1.94844 1.17434,-3.9196 1.17434,-3.9196 -1.18348,-3.58598 -1.18348,-3.58598 -3.49955,-2.16284 -3.49955,-2.16284 -3.68684,0.58587 -3.68684,0.58586 -2.75,3.05051 -2.75,3.0505 v 4.26172 c 0,9.14394 9.03585,14.42122 16.69553,9.75082 z m 609.21928,0.49996 c 4.86384,-2.51519 6.98435,-8.66628 4.97482,-14.43081 l -1.11037,-3.1852 -3.84979,-1.96402 c -4.69576,-2.3956 -6.13468,-2.43501 -10.65137,-0.2917 l -3.52415,1.67232 -1.40568,3.36425 -1.40567,3.36424 1.01747,3.77857 c 2.05458,7.63014 9.31025,11.12835 15.95474,7.69235 z m 59.30729,-33.94114 c 3.69715,-4.33779 8.72025,-11.7605 11.16244,-16.4949 l 4.44034,-8.60801 1.58869,-7.71331 1.58869,-7.7133 -0.94279,-6.65732 c -2.75825,-19.47676 -19.75068,-34.28119 -32.04843,-27.92178 -6.02758,3.11698 -7.54157,8.4832 -4.022,14.25571 2.42469,3.97678 3.53439,4.07226 5.39997,0.46464 0.7922,-1.53195 2.55038,-3.37943 3.90707,-4.10551 l 2.46671,-1.32014 3.231,0.70965 c 1.77704,0.3903 4.97784,2.28782 7.11288,4.2167 l 3.88189,3.50705 1.50572,5.07031 c 3.04764,10.26252 1.00856,23.04939 -5.98741,37.54643 -2.47878,5.13652 -4.51399,10.53652 -4.52268,12 l -0.0158,2.66087 -5.48305,6 c -3.01569,3.3 -5.48357,6.32233 -5.48419,6.7163 -0.002,1.06794 4.66828,-3.75198 12.22097,-12.61339 z m -733.99831,4.22088 -1.1762,-1.1762 1.11765,-1.34669 1.11765,-1.34668 -1.81506,0.6965 -1.81505,0.6965 0.68495,-1.78495 0.68495,-1.78495 -1.35522,0.52004 -1.35521,0.52005 0.4251,-2.22378 0.4251,-2.22379 -3.59814,-5.93492 C 131.43026,585.42053 131.13877,562.2143 142.92168,554.2738 L 146.29577,552 h 4.26322 4.26322 l 2.52434,3 C 161.25029,559.63933 165,557.27661 165,550.17749 V 546.8 l -3.4,-3.4 -3.4,-3.4 -4.35,0.022 c -9.23848,0.0466 -18.788,7.06403 -23.42851,17.21624 l -2.86223,6.2618 -0.38828,8.39692 -0.38828,8.39693 1.75564,6.60307 c 1.95438,7.35056 5.19514,14.34023 9.78441,21.10308 4.48884,6.61485 10.83679,14 12.03379,14 H 151.4 Z m 679.96193,-3.85862 c 2.02715,-0.56303 4.83965,-2.39504 6.25,-4.07115 L 839,609.84655 v -3.97294 c 0,-4.75024 -1.99521,-8.93808 -5.61488,-11.78531 L 830.73028,592 h -3.96085 C 818.93527,592 815,596.31737 815,604.91219 v 4.81809 l 2.16519,2.75259 c 3.57927,4.55031 7.6858,5.96398 13.02053,4.4823 z M 210.6,613.6 214,610.2 v -4.64966 C 214,596.92094 209.32482,592 201.12639,592 h -3.97294 l -3.05784,2.573 c -6.14566,5.17124 -6.37462,14.21881 -0.49056,19.38509 L 197.06959,617 h 5.06521 5.0652 z m -84.46431,-4.35 c -2.84704,-5.60454 -6.8346,-18.92023 -8.49771,-28.37644 -2.11731,-12.03877 -6.13603,-20.84998 -9.51715,-20.86673 l -1.37916,-0.007 0.66805,6.25 c 2.042,19.10391 13.93331,46.75 20.10842,46.75 0.28738,0 -0.33472,-1.6875 -1.38245,-3.75 z m 781.78475,-2.93689 c 7.42917,-10.11725 12.19054,-23.64696 13.59453,-38.62964 L 922.23498,560 h -1.57534 c -2.66238,0 -6.38763,8.00496 -8.6093,18.5 -3.19264,15.08181 -5.80567,24.08365 -8.5804,29.55932 -3.54385,6.99345 -1.32894,6.12441 4.4505,-1.74621 z M 834.85331,573.35754 841,572.71509 v -1.33849 c 0,-3.48532 -1.40812,-3.50025 -326.75317,-3.46468 -288.61863,0.0316 -322.67789,0.24631 -326.08584,2.05612 l -1.33901,0.71109 1.66044,1.66043 1.66044,1.66044 h 319.28188 c 175.60503,0 322.04789,-0.28911 325.42857,-0.64246 z M 232,562.18709 c 0,-6.85161 -31.99699,-21.94343 -51.642,-24.35766 -10.79441,-1.32656 -11.54632,-1.03038 -8.02086,3.15939 2.29422,2.72653 4.64169,8.56949 4.65728,11.5922 0.0168,3.24615 16.20856,6.64787 38.00558,7.98456 6.325,0.38788 12.4,1.06577 13.5,1.50644 2.65887,1.06515 3.5,1.09281 3.5,0.11507 z m 580.5,-1.2942 c 15.42359,-1.06349 23.71217,-2.24742 32.4353,-4.63299 l 6.4353,-1.7599 1.25558,-4.9244 c 0.69057,-2.70842 2.18218,-6.17769 3.3147,-7.7095 3.30657,-4.47238 2.1558,-4.92317 -9.44088,-3.69831 -15.11013,1.59597 -32.23514,8.56691 -44.41869,18.08117 -5.84066,4.56103 -8.06541,7.77267 -4.33131,6.25266 0.9625,-0.3918 7.6,-1.11573 14.75,-1.60873 z M 436.75819,503.25 437.01638,446 h -3.4012 c -4.6641,0 -4.38047,-3.68583 -4.5291,58.85719 l -0.13372,56.26638 3.77382,-0.31178 L 436.5,560.5 Z m 47.27692,56.5 c 0.0193,-0.6875 0.023,-54.09556 0.008,-118.68457 l -0.027,-117.43457 -2.6441,-3.81543 c -3.9522,-5.70303 -4.00866,-5.45109 -3.79512,16.93457 0.10887,11.4125 0.24859,66.5375 0.31049,122.5 L 478,561 h 3 c 1.71461,0 3.01504,-0.53558 3.03511,-1.25 z M 523.5,550.66578 v -9.83423 L 520.23422,537.91578 516.96845,535 h -3.34786 -3.34786 l -2.51421,2.5142 c -3.20227,3.20228 -3.88141,6.73026 -3.09239,16.06438 l 0.63335,7.49251 9.10026,-0.28555 L 523.5,560.5 Z M 538.84088,433.25 C 538.73743,362.9875 538.34015,307.075 537.95804,309 l -0.69476,3.5 -0.13164,-2.95 L 537,306.6 l -1.22496,1.22496 -1.22496,1.22496 1.22496,1.96147 c 1.41756,2.26988 1.61162,5.6316 0.36942,6.39933 -0.47055,0.29082 -0.66032,-0.69513 -0.42171,-2.19098 l 0.43383,-2.71974 -0.88049,1.23897 -0.88049,1.23897 -1.22877,-5.94909 c -0.67582,-3.272 -1.7413,-6.26586 -2.36774,-6.65302 l -1.13897,-0.70392 0.85957,1.91405 c 0.47276,1.05272 1.02881,4.38904 1.23566,7.41404 l 0.3761,5.5 -1.54911,3.5 c -3.05415,6.90047 -9.06248,11 -16.12175,11 h -4.06903 l -4.64913,-2.94839 -4.64912,-2.94839 -2.04666,-4.01177 L 497,317.07968 v -5.0895 c 0,-6.00392 1.71229,-9.72864 6.21408,-13.51743 l 3.28592,-2.76549 -2.5,0.76876 c -1.375,0.42282 -3.0625,1.21878 -3.75,1.76881 l -1.25,1.00006 v -1.02883 c 0,-0.56585 -0.94606,-0.78142 -2.10236,-0.47904 -1.23172,0.3221 -2.46775,-0.0273 -2.98469,-0.84362 l -0.88232,-1.3934 -0.0153,1.35699 c -0.008,0.74634 -0.57781,1.1412 -1.26531,0.87745 L 490.5,297.25491 490.4389,428.62746 490.3778,560 h 3.06303 3.06303 l -0.002,-11.75 -0.002,-11.75 2.36296,-3.77405 c 1.29963,-2.07572 4.32816,-4.92572 6.73006,-6.33333 l 4.36709,-2.55929 4.26995,0.006 c 7.35739,0.0105 12.51848,2.83985 15.42193,8.45451 l 1.44724,2.79864 -0.0258,12.08779 C 531.04374,561.11619 531.0059,561 535.57351,561 h 3.45547 z m -27.11583,85.002 -14.77495,-0.30575 0.27495,-92.89012 c 0.15122,-51.08956 0.56151,-93.17652 0.91174,-93.52658 0.35023,-0.35005 4.52993,0.0931 9.28821,0.98467 l 8.65143,1.62113 5.00987,-1.66401 c 2.75543,-0.91521 6.11324,-1.38709 7.46179,-1.04863 L 531,332.0381 V 425.51905 519 l -2.25,-0.22112 c -1.2375,-0.12162 -8.89873,-0.35872 -17.02495,-0.52688 z M 258.36942,557.25 C 247.28288,511.65613 216.6696,478.11614 175.5,466.45806 l -9,-2.54855 -11.02299,-0.59556 c -6.06264,-0.32756 -14.07572,-0.26865 -17.80682,0.13092 l -6.78384,0.72649 0.31753,1.66432 0.31752,1.66432 8.4893,0.62144 c 17.51229,1.28196 30.00422,10.15514 33.90853,24.08567 l 1.20316,4.29289 8.47065,1.6541 c 5.00453,0.97725 11.62884,3.20956 16.1888,5.45541 4.24499,2.09072 8.27582,3.75968 8.9574,3.7088 0.68158,-0.0509 0.99274,0.30633 0.69148,0.79379 -0.30127,0.48746 0.94107,1.79131 2.76076,2.89744 1.81969,1.10613 6.44543,5.13208 10.27943,8.94656 3.834,3.81448 7.179,6.72733 7.43333,6.47299 0.25434,-0.25433 -0.0349,-0.95976 -0.64276,-1.56761 -0.60786,-0.60786 -0.83888,-1.79918 -0.5134,-2.64738 l 0.5918,-1.54219 -1.16994,0.72306 C 227.52647,521.79266 227,521.64148 227,521.05902 c 0,-3.05495 4.401,-0.006 4.96696,3.44098 0.0903,0.55 0.85484,0.8574 1.69897,0.68312 0.91654,-0.18924 1.25826,0.13052 0.84833,0.7938 -0.37754,0.61088 -0.15045,1.75652 0.50466,2.54587 l 1.19109,1.43518 2.145,-1.03415 2.14499,-1.03415 -1.85014,1.48863 c -1.01757,0.81875 -1.55138,1.97202 -1.18624,2.56284 l 0.6639,1.0742 1.61856,-1.61857 1.61857,-1.61856 1.33974,1.8322 c 0.73686,1.00771 1.1124,2.42465 0.83453,3.14875 -0.27786,0.7241 0.14508,1.56609 0.93987,1.87108 0.79479,0.30499 1.7196,1.41949 2.05514,2.47666 0.33553,1.05718 1.02221,1.66742 1.52594,1.3561 0.92188,-0.56975 5.60448,8.81873 7.87393,15.787 1.40308,4.30813 3.44375,5.14597 2.43562,1 z m 100.99508,1 c 0.49941,-1.75045 0.0759,-9.29068 -0.5387,-9.59087 -0.17919,-0.0875 -6.04987,-2.96266 -13.04596,-6.3892 C 333.19504,536.10616 330,535.45621 330,539.05994 330,542.89034 334.89923,551 337.21327,551 c 0.47555,0 -0.0529,-0.98485 -1.17431,-2.18856 -2.60957,-2.80104 -2.56812,-3.42486 0.21104,-3.17602 3.583,0.32082 6.75,1.51659 6.75,2.5486 0,0.52292 0.92612,0.65681 2.05805,0.29755 1.13194,-0.35926 4.23846,-0.13013 6.9034,0.50918 l 4.84533,1.16238 0.50697,1.93866 c 0.27884,1.06627 0.29529,3.28181 0.0366,4.92344 -0.49957,3.16983 1.17008,4.19339 2.01418,1.23477 z m 311.26167,-2.7818 c -0.29765,-0.77568 0.11469,-2.0662 0.91632,-2.86783 1.73892,-1.73893 1.9312,-3.01116 0.303,-2.00488 l -1.15451,0.71353 0.75566,-1.22269 c 0.41561,-0.67247 1.32974,-1.00238 2.03138,-0.73314 0.70165,0.26925 3.10293,0.079 5.33619,-0.42278 l 4.06046,-0.91233 2.31266,0.92758 2.31267,0.92757 -2,0.14233 c -1.1986,0.0853 -1.47594,0.35217 -0.69214,0.66601 0.71933,0.28802 2.20119,-0.28478 3.29304,-1.27288 l 1.98517,-1.79656 -0.65002,1.69394 -0.65003,1.69393 1.35699,0.0153 1.35699,0.0153 -1.5,0.9694 -1.5,0.96937 1.29775,0.0153 c 1.66233,0.0196 6.11348,-4.74028 7.46678,-7.98469 3.61032,-8.65546 0.71096,-10.00059 -10.03949,-4.65773 -3.69877,1.83825 -9.31254,4.39606 -12.47504,5.68402 l -5.75,2.34174 0.0304,6.06598 0.0304,6.06599 1.05327,-1.81074 c 0.5793,-0.9959 0.80974,-2.44538 0.51208,-3.22106 z m 102.56064,1.7818 c 0.62917,-1.5125 3.03815,-6.85376 5.35331,-11.86947 l 4.20937,-9.11948 3.12437,-1.84561 3.12438,-1.84562 -0.49164,-1.54903 c -0.51488,-1.62224 2.96443,-4.46574 4.38785,-3.58602 0.4472,0.27638 1.33081,-0.63375 1.96358,-2.02252 0.63276,-1.38876 1.59856,-2.24809 2.14622,-1.90962 C 797.55191,523.8411 798,523.64148 798,523.05902 798,522.47656 797.52344,522 796.94098,522 c -0.58246,0 -0.75121,-0.49804 -0.375,-1.10676 l 0.68402,-1.10677 0.8187,1.32469 0.8187,1.32469 1.9236,-2.21793 c 1.72436,-1.98821 4.189,-3.00408 4.189,-1.72662 0,0.27022 -1.41674,1.84522 -3.14831,3.5 -1.73158,1.65479 -2.71273,3.0087 -2.18034,3.0087 0.53239,0 1.8545,-1.0125 2.93803,-2.25 1.08353,-1.2375 3.47118,-3.50599 5.3059,-5.0411 1.83472,-1.5351 3.05721,-3.06975 2.71663,-3.41032 C 810.29134,513.958 809.10698,514.72364 808,516 c -2.75327,3.17454 -3.74628,1.7642 -1.114,-1.5822 1.1627,-1.47813 2.114,-2.31183 2.114,-1.85266 0,0.45917 0.54,0.29486 1.2,-0.36514 1.73985,-1.73985 2.84129,-1.47116 2.08186,0.50787 l -0.65537,1.70786 6.77331,-4.73488 c 11.78383,-8.23748 19.07786,-11.00248 31.46849,-11.92899 l 3.36829,-0.25186 2.00669,-5.5 c 3.62052,-9.92321 7.87444,-14.46001 18.39278,-19.61588 l 7.13605,-3.49794 8.35226,-0.69309 8.35227,-0.69309 0.31625,-1.65258 0.31625,-1.65259 -9.66938,-0.72494 C 841.73991,459.96866 797.74044,488.32658 778.23111,534.5 775.54067,540.86756 770,557.77131 770,559.61187 c 0,1.54389 2.25835,-0.12985 3.18681,-2.36187 z m -387.48076,-1.42461 c 2.31333,-1.07869 5.57583,-3.52134 7.25,-5.42812 L 396,546.93041 v -2.98996 -2.98995 l -2.63208,-1.00072 c -3.16527,-1.20343 -4.4904,-0.83537 -15.11792,4.19899 -4.74386,2.24722 -8.25,4.52439 -8.25,5.35823 v 1.45012 l 2.25,-0.92113 c 1.2375,-0.50662 5.28296,-1.40936 8.98992,-2.00608 3.70695,-0.59672 7.53195,-1.38181 8.5,-1.74466 l 1.76008,-0.65971 -1.30545,1.60651 -1.30545,1.60651 1.80545,1.05031 1.80545,1.05031 -1.38976,0.0304 c -0.76436,0.0167 -1.93839,0.78071 -2.60894,1.69774 l -1.21918,1.66734 -3.89106,-0.1398 -3.89106,-0.1398 1.5,1.03314 1.5,1.03314 -3.5,-0.62135 -3.5,-0.62135 1.5,1.06067 1.5,1.06068 -1.5,1.03038 -1.5,1.03037 3,-0.63705 c 1.65,-0.35039 4.89272,-1.51963 7.20605,-2.59831 z M 120.92742,551.36514 123,548.73028 v -8.71592 c 0,-9.78399 -1.26696,-14.64693 -4.04581,-15.5289 -6.01684,-1.90967 -9.97336,8.3049 -8.01511,20.69267 l 0.82382,5.21146 2.22933,1.8052 c 3.02553,2.44993 4.49362,2.2743 6.93519,-0.82965 z m 793.67049,0.3043 2.70944,-2.33056 0.46649,-5.62527 c 0.25657,-3.0939 0.15137,-7.72665 -0.23377,-10.295 l -0.70027,-4.66972 -2.37445,-2.37445 c -2.72827,-2.72827 -4.70315,-2.99378 -6.78477,-0.91216 l -1.46229,1.46228 -0.688,8.78772 -0.688,8.78772 1.14846,2.99817 c 2.49494,6.51331 4.66292,7.56397 8.60716,4.17127 z M 226.78652,540.35226 C 215.22672,524.25553 190.22411,508 177.02556,508 h -2.25882 l 0.73675,2.25 c 0.40521,1.2375 1.44646,5.7375 2.31387,10 l 1.57712,7.75 h 2.37154 c 8.58715,0 43.1223,12.77421 45.66712,16.89181 0.38778,0.62745 1.13012,0.87811 1.64964,0.55703 0.51952,-0.32108 -0.5138,-2.61454 -2.29626,-5.09658 z m 580.69669,0.65701 c 9.9101,-5.4705 19.11723,-8.8035 31.47276,-11.39321 l 10.45597,-2.19156 1.08533,-6.00128 c 0.59692,-3.30071 1.68981,-7.46065 2.42863,-9.24432 1.7743,-4.28355 1.27324,-4.56654 -5.59659,-3.16083 -15.53564,3.1789 -34.90311,16.93532 -46.22135,32.83031 -2.87943,4.04379 -2.34232,3.97309 6.37525,-0.83911 z M 360,528.22252 v -9.77747 l -6.75,-2.88451 c -3.7125,-1.58647 -9.43081,-4.42717 -12.70736,-6.31265 -3.27654,-1.88548 -7.10154,-3.50009 -8.5,-3.58802 L 329.5,505.5 l -0.31353,3.80305 -0.31353,3.80304 2.1659,4.47414 c 1.19124,2.46078 3.60633,5.57282 5.36687,6.91565 2.54302,1.93965 22.3311,13.3629 23.34429,13.47617 0.1375,0.0154 0.25,-4.37191 0.25,-9.74953 z m 18.67982,4.4501 c 10.66938,-5.75219 13.7777,-8.05881 16.24968,-12.05855 L 397,517.26393 V 512.13197 507 h -2.01666 c -1.52625,0 -23.14159,10.02675 -24.7808,11.49513 -0.57384,0.51403 -0.69628,18.50684 -0.12593,18.50586 0.31714,-5.4e-4 4.18858,-1.94831 8.60321,-4.32837 z M 659,528.12244 v -8.87755 l -1.25,-0.93951 c -0.6875,-0.51672 -6.35666,-3.37354 -12.59814,-6.34847 l -11.34814,-5.40897 -1.40938,1.92745 -1.40939,1.92745 0.64117,3.54858 c 1.50679,8.33932 18.10183,22.68763 26.62388,23.01938 0.4125,0.0161 0.75,-3.9657 0.75,-8.84836 z m 18.10368,5.39379 c 15.85346,-7.95629 20.91494,-12.62743 22.40734,-20.67929 1.86139,-10.04263 -0.61169,-9.65503 -28.51102,4.46842 l -2.5,1.26557 -0.28753,9.21453 L 667.92495,537 h 1.11854 c 0.6152,0 4.24229,-1.5677 8.06019,-3.48377 z m -537.38863,0.50735 c 4.72144,-2.28115 16.62717,-5.61113 23.53495,-6.58263 l 4.75,-0.66804 -0.022,-2.13645 c -0.0121,-1.17505 -0.87826,-4.02256 -1.92484,-6.32779 l -1.90288,-4.19134 -4.17534,-2.13009 -4.17533,-2.1301 H 150.5 145.20035 l -4.13941,2.11177 c -2.27667,1.16147 -5.05029,3.55611 -6.1636,5.32143 l -2.02421,3.20966 0.42016,6.61367 c 0.60576,9.53515 0.72425,9.66265 6.42176,6.90991 z m 755.34711,-2.25443 c 2.13772,-7.93886 -0.0387,-14.42265 -6.44728,-19.20736 L 885.85334,510.5 h -7.75451 -7.75451 l -3.65233,2.78577 -3.65233,2.78576 -1.40809,4.71424 c -1.7069,5.7146 -1.8147,5.60333 6.86843,7.09014 7.93421,1.35858 22.19005,5.81356 23.04861,7.20275 1.19039,1.92609 2.41414,0.77341 3.51355,-3.30951 z m -625.01773,-1.10009 c 1.90056,0.093 7.39391,0.49738 12.20744,0.89866 l 8.75187,0.72961 6.53286,-3.31591 c 6.39514,-3.246 14.84745,-11.02007 12.74388,-11.72126 -0.58448,-0.19483 -3.16456,0.97874 -5.73352,2.60792 -6.29306,3.99094 -13.11,5.47208 -22.64486,4.92011 -9.9374,-0.57527 -9.9216,-0.55274 -4.87973,-6.95809 4.37551,-5.55879 7.01066,-7.62884 5.0516,-3.96831 l -1.12025,2.0932 1.52314,-0.58448 c 1.44788,-0.55561 1.89552,-1.61132 1.65025,-3.89204 -0.0604,-0.56184 2.46703,-2.58684 5.61656,-4.5 7.4537,-4.5277 8.44895,-4.88094 4.61197,-1.63691 C 292.62625,506.8037 290.71375,508 290.10564,508 289.49754,508 289,508.7301 289,509.62244 v 1.62245 L 290.5,510 c 0.825,-0.68469 1.5,-0.95442 1.5,-0.59939 0,0.35502 1.125,-0.0916 2.5,-0.99257 l 2.5,-1.63806 v 2.11501 c 0,4.11078 7.35637,-1.60001 11.44231,-8.88273 l 1.94231,-3.46195 v -4.89295 -4.89295 l -1.80869,-1.32255 -1.80868,-1.32254 -4.13363,1.62523 C 286.51413,492.07231 263,519.03735 263,531.18477 c 0,3.4922 1.11949,4.2032 2.45517,1.5593 l 1.1337,-2.24407 z m 495.63736,-0.24253 c -2.302,-14.18559 -24.4991,-38.99041 -40.28691,-45.01983 l -4.6514,-1.77638 -1.37174,1.87597 c -2.54864,3.48548 -1.24731,11.85682 2.73284,17.58015 l 1.79868,2.58645 2.29837,-0.17849 c 1.2641,-0.0982 3.9693,0.68722 6.01155,1.74533 2.04225,1.0581 4.14865,1.65468 4.6809,1.32573 0.53225,-0.32894 1.25038,-0.14074 1.59584,0.41823 0.34546,0.55897 -0.24334,1.01631 -1.30846,1.01631 -1.06511,0 -2.50532,0.6853 -3.20046,1.52289 l -1.26389,1.52289 1.80549,-0.69283 1.80549,-0.69283 -0.71598,1.15849 -0.71599,1.15848 1.63579,-0.62771 1.63578,-0.62771 -1.33384,-0.84552 -1.33385,-0.84552 2.19098,-0.0153 c 1.20504,-0.008 2.4691,-0.46531 2.80902,-1.01531 1.78819,-2.89335 7.78439,1.09793 13.93741,9.27722 3.5389,4.70429 3.4494,4.78258 -6.22568,5.44572 -11.10425,0.7611 -16.02588,-0.22307 -23.35543,-4.67037 -3.76163,-2.28242 -6.51963,-3.40676 -6.75641,-2.75435 -0.72888,2.00829 9.65353,10.46464 15.63597,12.73532 l 5.76414,2.18783 11.1296,-0.60822 11.12961,-0.60821 1.24284,1.49753 c 2.15117,2.592 3.29362,1.70697 2.67974,-2.07594 z M 423.00711,516.75 c 0.004,-4.5375 0.29398,-11.2875 0.6446,-15 l 0.6375,-6.75 h -10.60942 -10.60942 l -0.98923,1.84838 -0.98922,1.84838 3.45404,3.34779 3.45404,3.34778 -0.0354,6.05384 c -0.0196,3.35 -0.67372,7.17041 -1.46456,8.55383 -0.78602,1.375 -1.44508,3.0625 -1.46456,3.75 L 405,525 h 9 9 z m 199.41894,4.5 c -2.86727,-8.03447 -1.01624,-18.29313 3.56298,-19.74652 2.31505,-0.73477 2.51337,-2.25786 0.61892,-4.75348 L 625.27951,495 h -10.27059 -10.2706 l 0.61983,3.75 c 0.34091,2.0625 0.62479,8.8125 0.63084,15 L 606,525 h 8.88216 8.88216 z M 259.39042,511.024 c 1.48955,-2.7368 2.57357,-5.7743 2.40893,-6.75 L 261.5,502.5 l 1.5,0.21697 c 0.825,0.11934 2.78869,-1.69918 4.36375,-4.04114 1.57506,-2.34196 5.17506,-5.99234 8,-8.11195 2.97636,-2.23322 4.23255,-3.63309 2.98724,-3.32889 l -2.149,0.52495 -0.59765,-2.98824 -0.59765,-2.98825 -1.43874,0.5521 c -0.7913,0.30365 -1.60389,0.0566 -1.80574,-0.54893 -0.20186,-0.60556 -1.80385,0.43222 -3.55998,2.30618 l -3.19298,3.4072 -0.1408,3.5 -0.14081,3.5 -0.43532,-2.26483 c -0.23942,-1.24566 -0.83348,-2.01875 -1.32014,-1.71798 -0.48666,0.30077 -0.62938,1.21255 -0.31717,2.02618 l 0.56767,1.47931 -1.78495,-0.68495 -1.78495,-0.68495 0.64223,1.67361 0.64222,1.67361 h -1.31363 c -2.17244,0 -4.72903,3.53549 -4.05338,5.60538 l 0.61844,1.89462 -1.04774,-1.48363 -1.04774,-1.48363 -1.5358,3.67569 c -1.56017,3.73402 -1.30978,5.40105 1.43317,9.54157 2.04137,3.08148 2.31394,2.94388 5.39987,-2.726 z m 101.30174,-30.75208 -0.41117,-9.22807 1.41621,-2.02193 c 1.6996,-2.42653 3.60553,-2.57633 5.73137,-0.45049 L 369,470.14286 V 488.57143 507 h 0.96558 c 2.17023,0 14.33594,-7.46557 19.00183,-11.6606 l 4.99871,-4.49428 1.14808,-3.83197 c 0.63145,-2.10758 0.85722,-4.99088 0.50172,-6.40733 l -0.64638,-2.57536 -2.39163,-0.60026 c -1.3154,-0.33015 -3.35249,-0.086 -4.52687,0.54248 l -2.13524,1.14275 0.6713,-5.06046 0.67129,-5.06045 -1.24744,-4.4554 c -7.83203,-27.97328 -51.64732,-17.16287 -44.68975,11.02616 l 0.75657,3.06527 -4.76012,-0.0653 -4.76011,-0.0653 -0.37133,1.84986 c -1.48497,7.39785 3.48037,13.65197 17.23591,21.70958 l 10.07788,5.90334 0.80166,-9.23139 c 0.44092,-5.07726 0.61664,-13.38402 0.3905,-18.45947 z M 659,489.5651 c 0,-21.65029 1.76995,-26.65229 7.42857,-20.99367 L 668,470.14286 v 18.42857 C 668,498.70714 668.37197,507 668.82661,507 c 1.59888,0 17.1454,-8.80978 21.16612,-11.99424 6.64544,-5.26329 9.086,-12.78418 5.35819,-16.51198 -1.59619,-1.59619 -2.73651,-1.58647 -6.75161,0.0576 l -1.9007,0.77827 0.65786,-4.95919 0.65786,-4.95918 -1.53182,-5.15821 c -1.98274,-6.67659 -5.67208,-10.96669 -11.94164,-13.88618 l -5.04087,-2.34733 -5.55366,-0.01 -5.55365,-0.01 -5.28793,2.63509 c -8.88176,4.42596 -14.05732,14.55572 -12.47921,24.42467 0.67109,4.19681 0.35663,4.53625 -2.69129,2.90506 L 636,476.92963 634,478 l -2,1.07037 v 3.06368 c 0,7.25189 5.87479,13.90083 18.5,20.93786 3.85,2.14591 7.3375,3.9076 7.75,3.91487 0.4125,0.007 0.75,-7.83249 0.75,-17.42168 z m 240.62329,4.25661 c 1.58219,-1.47306 5.19206,-3.83556 8.02194,-5.25 L 912.79045,486 H 920.39523 928 v -1.27749 C 928,480.09421 920.99957,476 913.08593,476 h -4.97831 l -7.48405,3.87283 -7.48405,3.87282 -2.13063,-2.45044 -2.13063,-2.45044 -4.18913,0.66306 c -2.30402,0.36469 -6.11063,1.56911 -8.45912,2.6765 l -4.27,2.01344 -3.08657,4.48618 c -1.69761,2.4674 -3.33289,6.32263 -3.63395,8.56718 l -0.54738,4.08099 1.90395,-0.79238 c 1.04717,-0.43582 4.0993,-1.21645 6.78252,-1.73473 l 4.87858,-0.94234 6.86787,1.15842 c 3.77733,0.63713 7.14414,1.60542 7.48179,2.15175 0.33765,0.54633 1.40723,-0.28156 2.37684,-1.83976 0.9696,-1.55819 3.05744,-4.03831 4.63963,-5.51137 z m -746.87329,5.6794 11.25,0.001 v -1.93538 c 0,-11.62137 -19.52496,-23.49852 -26.41242,-16.06683 -2.8517,3.07703 -2.96408,3.07735 -6.97297,0.0196 C 119.76109,473.24124 101,475.27029 101,484.72251 V 486 h 6.82186 c 3.76103,0 9.03302,0.75291 11.75,1.67805 l 4.92814,1.67805 5.5,5.71972 5.5,5.71972 3,-0.64777 c 1.65,-0.35627 8.0625,-0.64727 14.25,-0.64666 z m 97.09865,-12.57357 c 10.38716,-11.04479 12.72207,-16.55033 9.85625,-23.2402 l -1.2049,-2.81266 -6,3.92032 c -3.3,2.15618 -7.0413,5.05654 -8.314,6.44524 l -2.314,2.52491 0.314,10.10878 c 0.1727,5.55983 0.47089,10.11267 0.66265,10.11743 0.19176,0.005 3.34176,-3.17397 7,-7.06382 z M 786,483.18709 v -9.81291 l -2.75,-2.52896 c -9.97165,-9.17014 -13.68603,-10.14279 -14.74721,-3.86171 -1.10289,6.5279 0.17272,9.33463 8.14008,17.91072 9.41111,10.13015 9.35713,10.14 9.35713,-1.70714 z M 423.42857,482.25 c -0.0393,-1.2375 -0.15178,-7.875 -0.25,-14.75 L 423,455 h -15.47187 -15.47186 l 2.47186,4.64894 c 1.35953,2.55692 2.47187,5.55104 2.47187,6.65361 0,1.10257 1.75597,3.62577 3.90214,5.60711 l 3.90215,3.60244 0.71698,4.78115 0.71697,4.78114 8.63088,-0.28719 L 423.5,484.5 Z m 199.85996,-2.25 0.84649,-4.5 3.93249,-3.70987 L 632,468.08025 v -3.1324 c 0,-1.72281 0.9,-4.27656 2,-5.67498 C 637.23495,455.16029 636.7236,455 620.36916,455 h -15.63084 l 0.61983,3.75 c 0.34091,2.0625 0.62479,8.8307 0.63084,15.04044 l 0.011,11.29044 8.22102,-0.29044 8.22102,-0.29044 z m -341.05826,-3.50965 4.71436,-2.50965 -0.5834,1.52033 -0.5834,1.52033 2.12465,-0.32425 c 1.16856,-0.17833 2.65855,-0.85814 3.31109,-1.51068 1.69004,-1.69004 2.83128,-1.46689 2.11006,0.41259 l -0.6136,1.59902 2.13751,-1.3349 2.13751,-1.33489 -0.55803,-2.01413 -0.55803,-2.01412 1.01113,1.47104 c 0.55612,0.80907 1.1481,1.25907 1.31551,1 5.65861,-8.75712 3.40555,-13.50176 -4.91392,-10.34804 l -4.78171,1.81264 -6.25,6.0752 c -8.57225,8.33249 -8.57952,10.53624 -0.0197,5.97951 z m 467.68414,-2.44724 c -10.40888,-12.95245 -26.57309,-17.62901 -22.94593,-6.63862 l 1.1508,3.48697 1.33913,-0.51387 c 0.73652,-0.28263 3.74718,0.71648 6.69036,2.22025 5.35615,2.73665 16.04214,6.4899 16.70162,5.86613 0.19271,-0.18227 -1.12848,-2.17166 -2.93598,-4.42086 z M 231.29624,445.72699 c -5.86944,-6.64203 -16.6582,-11.31264 -17.80258,-7.70701 -1.8405,5.79889 3.35268,13.62729 13.50634,20.35998 l 5.5,3.64695 0.29624,-7.13363 0.29623,-7.13362 z m 572.00699,10.92088 c 9.70576,-7.21803 10.90362,-8.74519 11.4682,-14.62092 l 0.4798,-4.99331 -1.59047,-0.61032 c -1.70775,-0.65533 -10.76452,4.11022 -15.69355,8.25773 L 795,447.17779 v 7.4111 c 0,8.83497 -0.60606,8.68468 8.30323,2.05898 z m -549.52372,-6.00254 7.27952,-7.04057 1.54628,-5.31903 c 0.89148,-3.06656 1.2688,-6.5824 0.89103,-8.30238 L 262.84109,427 h -1.96858 c -2.24073,0 -12.00552,5.93205 -16.12251,9.79432 l -2.75,2.57986 v 10.34809 10.3481 l 2.25,-1.19224 c 1.2375,-0.65573 5.52578,-4.36049 9.52951,-8.2328 z m 532.1502,-3.04894 0.0703,-7.90361 -3.91053,-3.59639 c -2.1508,-1.97801 -6.44763,-5.12705 -9.54853,-6.99786 l -5.638,-3.40147 -1.16902,1.16902 c -5.56839,5.56839 1.39962,19.00813 15.26379,29.44048 l 3.4977,2.63191 0.68201,-1.71924 c 0.37511,-0.94557 0.71364,-5.27585 0.75229,-9.62284 z m -490.18316,-0.0375 c 1.46147,-2.28579 2.56159,-5.53323 2.61923,-7.7317 l 0.0994,-3.79057 -1.64587,-1.64587 -1.64586,-1.64586 -3.73719,0.7011 c -2.06354,0.38712 -5.01331,1.97723 -6.58672,3.55064 L 282,439.84615 l 0.01,3.32693 c 0.005,1.8298 1.14305,5.76147 2.52817,8.73702 l 2.5184,5.4101 3.08518,-2.9101 c 1.69685,-1.60055 4.21912,-4.68361 5.60503,-6.85122 z m 444.17406,4.76758 -2.42061,-2.66565 2.47251,1.66959 c 3.33701,2.25337 3.66238,2.15571 4.92966,-1.47962 2.68874,-7.71293 0.46299,-13.02956 -6.83181,-16.31905 l -4.07495,-1.83755 -1.99771,1.8079 -1.9977,1.8079 v 3.91483 3.91484 l 2.99587,4.35434 c 3.12402,4.54061 7.93451,8.90896 8.8274,8.01607 0.28487,-0.28487 -0.57132,-1.71749 -1.90266,-3.1836 z M 147.26357,450.75 c 1.23004,-0.6875 2.37241,-1.31098 2.53862,-1.38552 0.1662,-0.0745 -1.48413,-2.89928 -3.66739,-6.27722 -2.18327,-3.37793 -4.90675,-8.91683 -6.05219,-12.30865 L 138,424.61166 v -8.49011 -8.4901 l -1.99844,-4.06573 C 134.90241,401.32958 132.46244,397.7 130.57939,395.5 l -3.42372,-4 -1.32784,1.3 -1.32783,1.3 0.0344,10.7 0.0344,10.7 2.79813,10 c 3.43402,12.27253 5.66545,17.49352 8.75805,20.4917 1.30623,1.26634 1.74293,1.94173 0.97045,1.50086 l -1.40451,-0.80158 0.66598,1.07757 c 0.36629,0.59267 2.00565,1.37182 3.64304,1.73145 1.63739,0.35963 3.23378,1.06925 3.54755,1.57694 0.73842,1.19479 1.04107,1.16816 3.71602,-0.32694 z m 740.91558,0 c 5.79895,-3.36833 10.16873,-11.41314 13.98691,-25.75 l 2.26371,-8.5 0.0351,-11.19862 0.0351,-11.19862 -1.23676,-1.23814 -1.23675,-1.23813 -2.53496,2.38147 c -1.39423,1.30981 -3.7437,4.85204 -5.22105,7.87163 l -2.68608,5.49016 -0.62338,10.56513 -0.62338,10.56512 -2.83839,6.32356 c -1.56112,3.47796 -4.33273,8.20296 -6.15912,10.5 -4.08208,5.134 -4.08364,5.19437 -0.14252,5.49467 1.75868,0.13401 3.40868,0.45473 3.66667,0.71271 0.67014,0.67015 0.91663,0.61208 3.31487,-0.78094 z m -539.30088,-8 5.62173,-3.25 9.5,0.006 9.5,0.006 6.22148,3.24382 6.22149,3.24382 h 18.52851 c 10.19069,0 18.52318,-0.3375 18.51665,-0.75 -0.007,-0.4125 -0.67619,-3.225 -1.48813,-6.25 -0.81194,-3.025 -1.4816,-6.2875 -1.48813,-7.25 L 420,430 h 3.86414 3.86414 l 1.63586,-4.28343 C 430.26386,423.36068 431,420.88242 431,420.20933 v -1.22381 l -65.25,0.25724 -65.25,0.25724 -0.30363,3.11958 -0.30363,3.11958 3.57747,2.11076 c 1.96761,1.16092 3.83989,2.79461 4.16062,3.63042 L 308.21398,433 h 6.31628 6.31629 l 3.12057,2.62579 c 1.71632,1.44419 4.00999,4.36919 5.09705,6.5 L 331.04065,446 h 6.10795 6.10795 z m 299.88688,0.006 5.73485,-3.2443 9.5,-0.006 9.5,-0.006 6.42721,3.25 6.42722,3.25 4.07278,-0.0136 c 6.38698,-0.0214 7.95565,-0.82006 9.706,-4.94155 2.14449,-5.04952 5.22705,-6.92624 13.52636,-8.23509 3.76224,-0.59332 7.29043,-1.62408 7.84043,-2.29056 0.55,-0.66649 2.4625,-1.96751 4.25,-2.89115 L 729,425.94864 V 422.47432 419 h -65.5144 -65.51439 l 3.02879,6 3.02879,6 h 2.48561 c 2.94679,0 2.93417,-0.0988 0.83709,6.5539 -0.90668,2.87632 -1.37081,5.95338 -1.03139,6.83789 L 606.93723,446 h 18.04653 18.04654 z m -466.49145,-5.37897 4.42519,-3.12327 2.15056,-4.44246 L 191,425.36855 v -5.81825 c 0,-10.78213 -4.14381,-18.54237 -12.05689,-22.57932 L 175.07968,395 h -5.47474 c -9.3081,0 -16.96802,5.14693 -20.18111,13.56029 l -1.69304,4.43314 0.49573,6.92846 0.49573,6.92845 2.61926,4.46944 C 154.35795,436.46693 159.33297,441 161.96552,441 h 1.81207 l 0.37612,-14.54569 0.37612,-14.5457 1.48509,-0.93899 c 3.71846,-2.35112 5.90704,-0.42418 6.6508,5.85573 0.69833,5.89632 1.20955,6.1343 5.74539,2.67465 3.77805,-2.88166 5.81576,-3.13649 7.62722,-0.95382 l 1.28321,1.54618 -1.97139,2.70382 c -1.08427,1.4871 -4.30662,4.25755 -7.16078,6.15655 L 173,432.40547 v 4.1306 c 0,6.40787 1.22809,6.5192 9.2737,0.84066 z M 855,436.53726 v -4.46274 l -5.98831,-4.06658 -5.9883,-4.06658 -0.60584,-2.41385 c -1.28088,-5.10344 1.76126,-5.83038 8.43452,-2.01546 2.39364,1.36837 4.47389,2.48795 4.62277,2.48795 0.14889,0 0.49151,-2.29797 0.76138,-5.10659 0.59657,-6.20858 2.7129,-8.21095 5.9646,-5.64341 l 1.58307,1.25 0.52052,13.82913 c 0.28628,7.60602 0.75099,14.05961 1.03269,14.34131 1.90322,1.90322 9.88498,-4.22527 12.70675,-9.75639 L 880,427.07968 v -7.91772 c 0,-16.26578 -8.41015,-25.02368 -23.01554,-23.96722 l -5.8036,0.4198 -4.03515,2.67034 c -2.21934,1.46868 -5.23829,4.72332 -6.70878,7.23253 l -2.67363,4.5622 -0.50695,6.31552 C 836.34159,427.79116 844.87393,441 853.15004,441 H 855 Z M 811.61589,421.832 c 4.95027,-5.2936 7.04748,-14.20664 3.94803,-16.77895 l -1.43608,-1.19184 -2.31392,1.19239 c -1.27265,0.65582 -5.57642,3.62275 -9.56392,6.59319 l -7.25,5.40079 v 8.98735 8.98735 l 6.75,-4.92914 c 3.7125,-2.71102 8.15215,-6.42853 9.86589,-8.26114 z m -580.32512,-7.07979 c -2.36329,-2.63333 -12.18948,-9.28175 -15.0473,-10.18105 l -2.25653,-0.71008 -0.8206,2.21829 c -2.64085,7.1389 1.39001,14.69293 12.17299,22.81281 l 7.16067,5.39219 0.29077,-8.76839 0.29078,-8.76839 z m 28.25198,-3.21937 c 4.35579,-5.71074 4.57648,-14.72545 0.39299,-16.05324 l -2.05962,-0.65369 -5.21853,2.55319 c -2.8702,1.40425 -6.50636,3.89739 -8.08036,5.54029 l -2.86183,2.98711 -0.47971,4.99243 c -0.26384,2.74584 -0.16715,7.4941 0.21487,10.55169 l 0.69459,5.55925 7.42239,-6.06506 c 4.08232,-3.33578 8.57116,-7.57117 9.97521,-9.41197 z m 526.5852,7.21716 c 0.27458,-15.55826 -0.19626,-16.61186 -9.49405,-21.24514 -6.30592,-3.14238 -8.16897,-3.14407 -10.22297,-0.009 l -1.63517,2.49558 0.69785,3.71986 c 1.14543,6.10567 3.1591,8.91064 11.28956,15.72593 9.57726,8.02805 9.2105,8.05495 9.36478,-0.68696 z M 439.06928,402.31052 c 1.8869,-4.22921 3.58072,-8.05421 3.76405,-8.5 C 443.01667,393.36473 410.95417,393 371.58333,393 H 300 v 8.5 8.5 h 67.81928 67.81928 z M 729,401.5 V 393 h -71.58333 c -39.37084,0 -71.42461,0.3375 -71.23061,0.75 0.194,0.4125 2.13018,4.2375 4.30262,8.5 l 3.94989,7.75 H 661.71929 729 Z m 73.75,-0.79935 7.25,-4.79755 v -3.05034 -3.05034 l -3.09243,-2.88876 c -1.70083,-1.58882 -4.8862,-3.42619 -7.0786,-4.08305 l -3.98617,-1.19428 -0.91021,1.43183 c -0.92086,1.44861 -0.85642,23.12612 0.0674,22.67447 0.275,-0.13444 3.7625,-2.40334 7.75,-5.04198 z M 233.78383,392.66865 234.06766,382 h -1.57367 c -10.35303,0 -16.66249,12.41905 -8.49399,16.7189 2.475,1.30282 5.16295,3.02806 5.97321,3.83386 2.79308,2.77769 3.52422,0.88125 3.81062,-9.88411 z m 521.81968,4.5905 c 1.56235,-7.69476 1.49413,-7.58688 6.42229,-10.15558 L 766.06159,385 h 5.13135 5.13134 l 4.39576,2.57608 4.39576,2.57609 -0.3079,-4.82609 L 784.5,380.5 l -18.78299,-0.27219 -18.783,-0.27218 0.61499,10.77218 c 0.76119,13.33288 0.80775,13.48104 4.11349,13.08916 L 754.33636,403.5 Z m -474.29652,-5.00149 c 0.75715,-13.37015 2.39437,-12.35379 -19.38023,-12.0309 L 243.5,380.5 l -0.33288,2.35171 c -0.18308,1.29344 -0.0766,3.37279 0.23662,4.62077 l 0.56949,2.26905 4.68286,-2.37076 c 5.69163,-2.88147 11.34499,-3.00715 17.13155,-0.38085 l 4.28764,1.946 1.46236,3.49992 C 272.34194,394.3608 273,397.52522 273,399.46788 V 403 h 3.84933 3.84933 z m -79.73615,3.60254 2.60454,-5.1398 0.5415,-7.15989 0.5415,-7.1599 -1.6469,-5.66513 c -0.90579,-3.11582 -2.69302,-6.88131 -3.97161,-8.36776 l -2.3247,-2.70264 -1.70859,0.65565 c -0.93973,0.3606 -2.63582,2.7518 -3.7691,5.31376 l -2.06051,4.65812 0.082,8.71096 c 0.0833,8.84654 0.79807,12.01719 3.71169,16.46393 l 1.62486,2.47984 1.24152,-1.24153 c 2.46564,-2.46563 2.22117,-4.26381 -1.08201,-7.95869 -1.84527,-2.06409 -3.35206,-4.31409 -3.34844,-5 0.004,-0.68592 0.80096,-0.0426 1.77185,1.4295 0.97089,1.47214 3.03086,3.67213 4.5777,4.88888 1.54685,1.21675 2.43702,2.48727 1.97815,2.82339 -1.51169,1.1073 -4.29476,6.81731 -3.64127,7.47079 1.37161,1.37162 2.36886,0.45173 4.87782,-4.49948 z M 830.5,400 c -0.33992,-0.55 0.23701,-1 1.28205,-1 h 1.90009 l 2.66349,-4.89371 c 3.42233,-6.28795 4.17645,-12.08238 2.70659,-20.79672 -3.50403,-20.77419 -14.88926,-15.90387 -15.00833,6.42019 l -0.0439,8.22977 1.66262,4.27023 c 2.09413,5.37852 2.23047,5.52606 3.45726,3.74128 L 830.131,394.5 l -0.63005,2.24105 C 828.912,398.8359 829.47965,401 830.61802,401 c 0.275,0 0.22189,-0.45 -0.11803,-1 z M 154.96456,381.20034 C 155.07535,374.01085 142.35074,360 135.7105,360 h -1.89794 l 0.63411,5.75 c 1.14267,10.36154 8.52697,20.11672 15.30333,20.21678 1.2375,0.0183 2.26595,0.59572 2.28544,1.28322 0.0621,2.19187 2.8922,-3.65319 2.92912,-6.04966 z M 880,384.95191 c 1.375,-0.79855 3.8469,-1.94101 5.49311,-2.53881 l 2.99311,-1.0869 2.75689,-5.27729 L 894,370.77162 V 365.38581 360 h -1.84996 c -4.89578,0 -15.15714,10.38206 -17.09213,17.29318 -2.26347,8.0843 -0.49899,10.8187 4.94209,7.65873 z m -433.87312,-1.29218 c 1.12013,-1.18785 2.46268,-2.94167 2.98344,-3.89738 l 0.94683,-1.73766 -6.02857,0.63011 L 438,379.28491 V 374.64246 370 h 3.27216 3.27215 l 3.7231,-3.06889 3.7231,-3.0689 2.00475,0.63628 2.00474,0.63629 0.004,7.18261 0.004,7.18261 2.01163,3.29945 2.01163,3.29944 5.73463,-0.29944 L 471.5,385.5 l 0.74871,-14 c 0.41179,-7.7 0.53742,-14.56509 0.27918,-15.25575 l -0.46953,-1.25575 -83.27918,0.25575 L 305.5,355.5 l -1.19444,6 c -1.77371,8.9099 -3.34407,22.62867 -2.70805,23.65777 0.32261,0.522 30.38094,0.85024 71.52462,0.78105 l 70.96815,-0.11936 z m 126.88814,-1.68917 c 2.18669,-4.28627 1.7826,-5.22431 -1.68294,-3.90672 C 569.97783,378.57873 567.5491,379 565.9349,379 H 563 v -4.5 -4.5 h 3.42327 3.42328 l 2.97108,-2.5 c 1.6341,-1.375 4.14362,-2.5 5.57673,-2.5 H 581 v 8.80887 8.80887 l 1.25,1.70086 1.25,1.70087 71.5,-0.25974 71.5,-0.25973 0.32127,-2.80021 c 0.32348,-2.81949 -2.40281,-23.44573 -3.46473,-26.21305 L 722.78602,355 h -83.45784 -83.45785 l 0.15653,6.75 c 0.0861,3.7125 0.40003,10.70952 0.69765,15.54894 l 0.54112,8.79895 6.92505,-0.20221 6.92505,-0.20221 z M 175.83604,360.78287 c 6.57409,-6.60865 7.34552,-9.16763 7.90621,-26.22649 l 0.4583,-13.94362 -1.16966,-3.904 c -0.64332,-2.1472 -2.973,-5.86039 -5.17707,-8.25152 l -4.0074,-4.34752 -5.04162,-1.67455 -5.04161,-1.67456 -4.38479,0.601 c -2.41164,0.33055 -6.20658,1.53041 -8.43321,2.66635 l -4.04841,2.06535 -2.90659,4.58322 c -3.81224,6.01127 -4.52,11.44313 -3.26153,25.03133 l 1.03801,11.20785 1.90652,3.26441 C 145.59061,353.4632 155.24284,362 157.03746,362 c 0.57444,0 1.00273,-6.75363 1.06222,-16.75 0.0548,-9.2125 0.41077,-17.875 0.79099,-19.25 l 0.69132,-2.5 2.26405,-0.32676 c 1.24522,-0.17972 2.91428,0.21288 3.709,0.87244 L 167,325.24489 v 15.73798 c 0,27.00233 0.51759,28.16217 8.83604,19.8 z m 108.32681,3.41782 c 0.36533,-0.38538 0.81564,-1.82569 1.00069,-3.20069 l 0.33646,-2.5 -23.62556,-0.2678 -23.62555,-0.26781 -4.70735,2.01781 c -6.21689,2.66486 -10.89381,2.53256 -17.39084,-0.49197 -7.81487,-3.63802 -8.96851,-2.98468 -5.31456,3.00977 l 1.82866,3 35.41691,-0.29931 c 19.4793,-0.16461 35.71581,-0.61461 36.08114,-1 z m 533.66485,-2.52647 c 1.89216,-3.94871 1.18101,-4.14945 -5.74879,-1.62272 l -6.08662,2.21929 -4.64571,-0.63676 c -2.55513,-0.35022 -5.99754,-1.31115 -7.64978,-2.1354 L 790.69272,358 h -23.96299 -23.96299 l 0.60297,2.25 c 0.33164,1.2375 0.60913,2.81811 0.61664,3.51247 L 744,365.02495 780.23682,364.76247 816.47363,364.5 Z M 861.35815,361.25 c 0.34091,-2.0625 0.62479,-11.0074 0.63084,-19.87756 l 0.011,-16.12755 1.48701,-1.23411 c 5.7629,-4.78278 7.4821,0.0922 7.49934,21.2649 l 0.0136,16.77568 2.97114,-1.53644 c 1.63413,-0.84504 5.15971,-3.69071 7.83461,-6.32371 l 4.86346,-4.78728 0.6654,-3.32697 c 0.36596,-1.82983 0.65551,-9.00821 0.64343,-15.95196 l -0.022,-12.625 -1.82106,-4.00858 c -2.42491,-5.33779 -7.73944,-9.84076 -13.52669,-11.46109 l -4.72413,-1.32267 -5.36825,1.20136 c -7.12875,1.59534 -12.69228,5.77731 -15.63324,11.75112 L 844.5,318.5 V 330 c 0,6.65401 0.63109,14.23904 1.49763,18 l 1.49763,6.5 5.05897,5.25 c 2.78243,2.8875 5.76212,5.25 6.62152,5.25 h 1.56257 z m -632.01507,-9.36046 c 3.13674,-1.42919 5.05692,-5.06767 5.05692,-9.58216 v -3.5767 l -2.95,-2.36037 c -9.67839,-7.74394 -20.86787,5.77731 -11.76353,14.21492 2.83484,2.62725 5.85714,3.03547 9.65661,1.30431 z M 809.6434,349.86529 812,347.65137 V 343.5 339.34863 l -2.3566,-2.21392 c -1.29614,-1.21765 -3.97526,-2.47658 -5.95361,-2.79762 l -3.59701,-0.58372 -3.04639,3.04639 L 794,339.84615 v 2.64267 c 0,3.28207 1.58108,6.46563 4.36704,8.79316 l 2.13296,1.78199 3.3934,-0.49239 c 1.86636,-0.27081 4.45386,-1.48864 5.75,-2.70629 z M 472.20418,330.75 c 0.21914,-10.0375 0.23629,-18.5875 0.0381,-19 C 472.0441,311.3375 437.74184,311 396.01504,311 h -75.86692 l -3.95529,10.25 C 312.3914,331.1013 308,345.33962 308,347.81379 V 349 h 81.90287 81.90286 z m 247.99294,17.71954 C 721.00444,347.66223 717.53043,335.829 712.71976,323 l -4.31232,-11.5 -76.34375,-0.25628 -76.34376,-0.25628 0.63134,5.25628 c 0.34724,2.89095 0.63526,11.44378 0.64004,19.00628 L 557,349 h 81.33333 c 44.73334,0 81.57204,-0.23871 81.86379,-0.53046 z m -429.38838,-10.13702 0.30873,-2.16748 -23.30873,-0.35542 c -24.4591,-0.37297 -25.4023,-0.25511 -24.3554,3.04337 l 0.65201,2.05431 6.19733,0.29635 C 253.7112,341.36664 264.15,341.275 273.5,341 l 17,-0.5 z m 493.81703,2.28313 c 0.0692,-0.0636 0.437,-1.12815 0.81739,-2.36565 L 786.13478,336 H 761.56739 C 748.05532,336 737,336.19571 737,336.4349 c 0,0.2392 0.44801,1.61325 0.99557,3.05345 l 0.99557,2.61854 22.75443,-0.6878 c 12.51494,-0.37829 22.81103,-0.73984 22.8802,-0.80344 z M 519.6,318.6 c 3.60394,-3.60394 3.97391,-4.96029 2.44787,-8.9741 -1.14567,-3.01332 -4.07805,-4.73209 -8.27707,-4.85148 l -3.1041,-0.0883 -2.33335,2.71269 c -3.85708,4.48412 -2.47833,10.33611 3.16665,13.44047 3.17276,1.7448 4.47623,1.38445 8.1,-2.23932 z m -322.52223,-1.05193 c 0.52517,0.32457 0.68847,1.12153 0.36289,1.77103 -0.32557,0.64949 1.62088,-1.13555 4.32547,-3.96677 C 207.24858,309.61317 211,302.56791 211,298.0109 V 295 h -2.32 c -3.23844,0 -10.0975,6.16527 -12.59209,11.3184 L 194,310.63145 l 0.0304,4.93427 0.0304,4.93428 1.03105,-1.77103 c 0.56708,-0.97407 1.46073,-1.50548 1.9859,-1.1809 z m 100.88705,-0.48233 C 298.53417,316.0019 299,314.87196 299,314.55477 c 0,-0.31719 -18.7875,-0.45928 -41.75,-0.31574 L 215.5,314.5 l -0.31955,2.25 -0.31955,2.25 h 41.03437 41.03436 z M 814,318.19113 c 0,-0.44488 -0.5625,-1.57583 -1.25,-2.51322 l -1.25,-1.70434 -40.61477,0.26321 -40.61477,0.26322 0.83255,2.25 0.83254,2.25 h 41.03223 C 795.5355,319 814,318.63601 814,318.19113 Z M 831.06574,316.96482 833,315.92963 v 1.23519 1.23518 l 1.10002,-1.10002 1.10003,-1.10003 -1.69966,-5.84997 -1.69965,-5.84998 -5.33426,-5.33606 -5.33425,-5.33605 -1.81611,0.37348 -1.81612,0.37348 0.25681,4.85556 c 0.27082,5.12029 2.55798,9.715 7.6258,15.31959 3.33646,3.68984 3.09954,3.59751 5.68313,2.21482 z M 482.96482,303.06574 C 483.53417,302.0019 484,299.0769 484,296.56574 V 292 h -2.5 -2.5 v -6.5 -6.5 h 3.37868 3.37868 l 1.31492,-3.25 c 0.72321,-1.7875 6.38103,-14.44551 12.57293,-28.12892 l 11.258,-24.87892 0.49733,-14.62108 c 0.27353,-8.04159 0.5203,-14.98847 0.54839,-15.4375 0.0281,-0.44903 1.28472,-0.67403 2.79252,-0.5 l 2.74145,0.31642 0.36043,2 c 0.62538,3.4702 4.74169,7.95748 9.78642,10.6684 4.65225,2.50001 6.02883,2.90578 14.62025,4.30952 l 3.75,0.61271 v 3.08576 3.08577 l -10.30005,-0.45809 -10.30005,-0.45809 -3.35359,-1.67299 c -4.50945,-2.24961 -4.34805,-2.42207 -3.8157,4.07701 l 0.471,5.75 10.50784,23 c 5.77931,12.65 11.4827,25.1375 12.67419,27.75 l 2.16635,4.75 h 2.975 H 550 v 4.91821 C 550,290.15143 549.27842,292 546.84529,292 h -1.94072 l 0.29771,6.25 0.29772,6.25 79.27433,0.11432 79.27432,0.11433 -0.64411,-2.11433 C 699.47178,289.70494 682.26082,266.27035 662.40166,246.78444 629.61486,214.61388 593.28185,195.82356 546.5,186.84367 l -7,-1.34367 -23.5,0.0348 -23.5,0.0348 -9.5,1.76511 C 427.08077,197.72459 384.66297,222.50575 348.34913,266 337.81102,278.62182 324,300.47551 324,304.52851 324,304.78783 359.53417,305 402.96482,305 h 78.96481 z M 300.8213,287.99181 c 0.41258,-4.48396 1.21924,-5.22932 6.40883,-5.92194 L 311.5,281.5 v -2 -2 l -4.65109,-0.30075 -4.6511,-0.30075 -0.85852,-4.69925 L 300.48076,267.5 H 299 297.51924 l -0.8678,4.75 -0.8678,4.75 h -3.31003 C 288.18048,277 286,277.87412 286,279.59517 v 1.38119 l 4.06711,0.65036 c 5.16382,0.82573 6.93289,2.61653 6.93289,7.01803 v 3.5019 l 1.75,-0.33152 1.75,-0.33151 z m 431.9845,-0.70696 0.30579,-4.21516 3.69421,-0.62216 c 6.26835,-1.0557 7.32094,-1.54991 6.99208,-3.28297 l -0.31587,-1.66456 -4.73565,-0.30457 -4.73565,-0.30457 -0.50535,-2.44543 c -0.27795,-1.34499 -0.73893,-3.57043 -1.02441,-4.94543 -0.28548,-1.375 -1.16509,-2.5 -1.95469,-2.5 h -1.43563 l -0.62323,3.75 c -0.97517,5.86769 -1.2301,6.24914 -4.18602,6.26365 -8.18166,0.0402 -9.27494,2.71955 -1.87946,4.60615 5.90353,1.506 5.79255,1.38634 5.90203,6.36411 l 0.0903,4.10353 2.05289,-0.29372 L 732.5,291.5 Z M 264,281.83786 c 0,-2.90544 -5.54782,-10.22933 -9.78341,-12.91546 L 249.60844,266 l -4.55422,0.004 c -5.6677,0.005 -9.93323,2.49951 -12.5357,7.332 -1.94907,3.61921 -3.81583,4.61025 -5.01852,2.66426 -0.96715,-1.56488 -4.2233,-1.18181 -8.5,1 -4.94589,2.5232 -8.60167,2.52332 -15.23927,5e-4 -8.38165,-3.18569 -19.63428,-0.19408 -19.74542,5.2495 C 184.00689,282.6625 202,283 224,283 h 40 z m 582,0.31713 c 0,-1.71983 -3.80046,-4.19406 -9.40283,-6.12156 l -5.76339,-1.98289 -4.88364,2.47473 c -6.01879,3.04995 -10.56404,3.12661 -17.15929,0.28941 l -5.07992,-2.18532 -3.00899,1.72692 -3.00898,1.72692 -2.89922,-3.51726 -2.89922,-3.51725 -3.88498,-1.04612 c -8.97304,-2.41619 -27.05849,7.61514 -22.30299,12.37065 C 766.66714,283.33381 846,283.11819 846,282.15499 Z M 215.65203,267.97146 C 219.05204,266.78621 222,262.39645 222,258.51878 v -2.67263 l -2.92308,-2.92307 c -4.50754,-4.50755 -11.73906,-3.4109 -14.65192,2.22195 -4.02789,7.78908 2.91698,15.72333 11.22703,12.82643 z M 822.41111,265.92327 825,262.84655 v -3.5002 -3.5002 L 822.07692,252.92308 819.15385,250 h -3.4309 -3.4309 l -2.64603,2.45225 L 807,254.9045 v 4.24303 4.24303 l 2.68709,2.80472 2.68709,2.80472 h 3.72402 3.72401 z m -514.2977,-31.66914 c 5.26277,-2.35184 9.35626,-6.30664 12.15279,-11.74102 l 2.06514,-4.01311 0.45336,-7.5867 0.45336,-7.58669 -1.96086,-4.41331 c -2.86945,-6.45822 -6.67619,-10.47216 -12.74973,-13.44366 l -5.38072,-2.63254 -5.32338,-0.041 c -11.16716,-0.0861 -19.4756,4.85156 -24.2351,14.40263 L 271,202.39269 v 7.34349 7.3435 l 2.1078,4.21016 c 6.88626,13.75477 21.29538,19.09117 35.00561,12.96429 z m 435.89427,-0.25805 c 29.35371,-14.97514 11.23903,-59.18096 -20.50431,-50.03733 l -4.99664,1.43928 -4.50336,4.55098 L 709.5,194.5 l -1.75495,5 c -0.96522,2.75 -1.75494,7.25 -1.75494,10 0,2.75 0.78972,7.25 1.75494,10 l 1.75495,5 4.5,4.53273 4.5,4.53274 5,1.71598 5,1.71599 5.57239,-0.38779 c 3.07752,-0.21416 7.52575,-1.38431 9.93529,-2.61357 z M 447.29815,170.36852 c 2.85828,-2.85828 -5.31097,-6.78097 -12.82422,-6.15792 l -5.51598,0.45743 -1.98559,-3.21275 c -14.28621,-23.11557 -55.39771,-23.64404 -69.64487,-0.89524 l -2.82749,4.51472 -2,-0.5763 c -1.1,-0.31696 -3.42329,-0.8363 -5.16288,-1.15408 l -3.16287,-0.57779 -3.18213,1.58746 -3.18213,1.58745 -4.21405,-1.12708 C 327.4768,163.1778 320,166.0295 320,170 v 1 h 63.33333 c 34.83334,0 63.6175,-0.28417 63.96482,-0.63148 z M 710,169.2 c 0,-2.46525 -1.94234,-4.2 -4.7026,-4.2 h -2.30261 l -3.68394,-4.07768 c -6.48772,-7.18114 -19.61963,-11.68244 -26.45047,-9.06659 l -2.63962,1.01084 -1.60236,-4.19571 c -2.32478,-6.08735 -7.086,-11.36388 -12.96958,-14.3733 l -5.14882,-2.63359 -6.04695,-0.0195 -6.04695,-0.0195 -4.70038,2.27541 c -5.84714,2.83056 -11.48113,9.26687 -12.97144,14.81866 l -1.13255,4.21908 -2.55086,-0.71908 c -1.40298,-0.39549 -5.51796,-0.65877 -9.14441,-0.58507 l -6.59354,0.13399 -4.85141,2.14601 c -8.60123,3.80473 -17.8343,13.05576 -15.99718,16.02828 L 581.11803,171 H 645.55902 710 Z M 509.8413,151 c 5.02747,-3.64188 4.16649,-3.65816 9.61431,0.18182 5.38023,3.79234 6.16899,3.35577 4.67275,-2.58633 -1.68164,-6.6784 -1.51328,-7.17987 3.37164,-10.04262 2.475,-1.45045 4.5,-3.29321 4.5,-4.09502 V 133 l -4.25,-0.0137 c -2.3375,-0.008 -5.20238,-0.26928 -6.36641,-0.5817 l -2.11641,-0.56804 -1.80638,-5.96608 c -2.40895,-7.95622 -3.03094,-8.03451 -5.29288,-0.66621 l -1.92351,6.26585 -2.3722,0.66523 c -1.30472,0.36588 -4.28471,0.7101 -6.62221,0.76492 -2.3375,0.0548 -4.25,0.52678 -4.25,1.04879 0,1.17109 6.27858,6.05089 7.78537,6.05089 2.00956,0 2.21505,1.74737 0.70784,6.01925 -2.97434,8.43017 -1.98235,9.5665 4.34809,4.98075 z"
       id="path1" />
  </g>
</svg>
