<?xml version="1.0" encoding="UTF-8" standalone="no"?>
<!-- Created with Inkscape (http://www.inkscape.org/) -->

<svg
   version="1.1"
   id="svg1"
   width="1280"
   height="720"
   viewBox="0 0 1280 720"
   xmlns="http://www.w3.org/2000/svg"
   xmlns:svg="http://www.w3.org/2000/svg">
  <defs
     id="defs1" />
  <g
     id="g1">
    <path
       style="fill:#000000"
       d="m 715.33967,174.02542 20.75166,-19.6905 5.54164,5.65954 -20.28003,20.04422 z"
       id="path13-75" />
    <path
       style="fill:#000000"
       d="m 680.34347,209.0354 20.75166,-19.6905 5.54164,5.65954 -20.28003,20.04422 z"
       id="path13-06" />
    <path
       style="fill:#000000"
       d="m 645.35773,244.36224 20.75166,-19.6905 5.54164,5.65954 -20.28003,20.04422 z"
       id="path13-04" />
    <path
       style="fill:#000000"
       d="m 609.99525,279.35748 20.75166,-19.6905 5.54164,5.65954 -20.28003,20.04422 z"
       id="path13-7" />
    <path
       style="fill:#000000"
       d="m 574.66508,314.69335 20.75166,-19.6905 5.54164,5.65954 -20.28003,20.04422 z"
       id="path13-8" />
    <path
       style="fill:#000000"
       d="m 539.67601,349.69715 20.75166,-19.6905 5.54164,5.65954 -20.28003,20.04422 z"
       id="path13-12" />
    <path
       style="fill:#000000"
       d="m 504.34015,385.0297 20.75166,-19.6905 5.54164,5.65954 -20.28003,20.04422 z"
       id="path13-0" />
    <path
       style="fill:#000000"
       d="m 383.19823,340.98747 46.69123,-45.74797 7.07443,3.77303 -48.57774,48.10611 z"
       id="path3" />
    <path
       style="fill:#000000"
       d="m 383.19823,370.46426 68.38615,-67.6787 9.66838,0.70744 -73.10243,73.80987 -6.36698,-5.65954 z"
       id="path4" />
    <path
       style="fill:#000000"
       d="m 416.91968,255.15107 2.35814,-13.91304 10.37583,-15.79956 12.73397,-7.78187 13.2056,-2.35815 -2.12233,11.5549 -10.14001,3.77303 -5.54164,4.8342 -4.00884,4.48047 -3.53722,7.19233 -1.53279,11.437 2.35814,8.13559 6.13118,9.19676 10.49373,7.42815 7.89978,1.88651 10.14002,-0.82535 8.13559,-4.48047 5.42373,-4.48047 4.9521,-7.42815 2.71186,-7.89978 -0.35372,-8.72513 -3.06558,-9.19676 -10.02211,-10.72955 2.62777,-12.18089 4.41877,2.75131 7.83706,6.75321 5.16912,7.50356 4.50214,9.17103 0.50024,9.838 0.0834,7.83706 -3.0848,9.17103 -5.33587,8.9209 -11.33872,10.92186 -17.17483,4.83563 -18.67554,-2.00095 -14.50689,-9.83801 -9.17102,-12.3392 z"
       id="path5" />
    <path
       style="fill:#000000"
       d="m 461.72439,255.6227 -7.78187,-0.70745 11.31909,-48.69565 -29.24098,-16.62491 -4.31553,-2.8393 -3.58503,4.50214 -6.58646,1.33397 -6.58647,-1.16722 -1.16722,-2.75131 0.83373,-1.75083 11.50547,-11.0886 6.83658,-7.58694 1.75083,-0.9171 3.33492,1.00047 1.91758,2.41782 -4.50214,8.58741 22.42732,13.58979 36.38256,-36.22639 22.16654,9.9042 -0.23581,9.19676 4.9521,9.31466 8.13559,8.37141 11.79071,4.59838 11.90863,-0.94326 10.96536,-6.36698 6.6028,-7.19234 2.94768,-8.96094 V 163.3014 l -1.41489,-4.83419 -5.77745,-9.43257 -10.0221,-6.95653 -7.07443,-2.00442 -10.25793,0.23582 -10.84745,4.48047 -7.31025,7.54606 25.70376,13.44141 -3.06558,6.13117 -19.33678,-8.84303 -29.94841,-14.03095 -8.37141,-4.9521 -2.35814,-4.00885 1.41488,-4.71628 12.14444,-12.38025 5.77745,-0.47163 4.12675,2.47605 2.71186,8.60722 1.41489,3.06558 -6.95652,1.76861 -3.18349,-8.37141 -8.48932,9.07886 17.21444,8.2535 9.7863,-10.25793 9.07885,-6.24908 11.79071,-2.35814 12.14444,-0.23581 12.26234,5.07 5.42373,3.41931 6.95652,7.42815 5.54164,8.72513 3.41931,12.38025 -1.06117,13.55932 -4.71628,11.20118 -9.31467,10.49374 -9.19676,5.77745 -8.96094,2.71186 -8.48931,1.06117 -16.27119,-3.41931 -8.96094,-5.18791 -9.07885,-10.61165 c 0,0 -5.42373,-13.91304 -4.9521,-13.91304 0.47162,0 -1.88652,7.42815 -1.88652,7.42815 l -3.06558,16.27119 -2.82978,13.08769 14.62049,8.72513 -3.18349,7.89978 -20.63375,-11.79072 -15.91747,-8.72513 z"
       id="path6" />
    <path
       style="fill:#ffffff"
       d="m 467.22198,194.7592 26.67934,-29.01379 6.33634,4.0019 -11.67221,34.34966 z"
       id="path10" />
    <path
       style="fill:#000000"
       d="m 383.90567,399.46942 298.5409,-296.65439 8.48932,9.43258 -298.5409,298.06927 -10.37583,-9.43258 z"
       id="path11" />
    <path
       style="fill:#000000"
       d="m 494.03095,165.65954 3.18349,-4.42151 5.48269,2.82977 -2.53501,5.71849 z"
       id="path12" />
    <path
       style="fill:#000000"
       d="m 433.66249,455.82904 20.75166,-19.6905 5.54164,5.65954 -20.28003,20.04422 z"
       id="path13" />
    <path
       style="fill:#000000"
       d="m 468.69503,421.02304 20.75166,-19.6905 5.54164,5.65954 -20.28003,20.04422 z"
       id="path13-1" />
    <path
       style="fill:#000000"
       d="m 430.20439,561.60015 412.19584,-411.52885 7.33682,10.00475 -412.19584,409.5279 z"
       id="path14" />
    <path
       style="fill:#000000"
       d="m 538.92271,560.26618 19.34252,-20.0095 5.33587,5.33587 -19.67601,21.00998 -6.33635,-5.33587 z"
       id="path15" />
    <path
       style="fill:#000000"
       d="m 573.99858,524.69122 19.34252,-20.0095 5.33587,5.33587 -19.67601,21.00998 -6.33635,-5.33587 z"
       id="path15-0" />
    <path
       style="fill:#000000"
       d="m 609.28948,489.23244 c 3.00142,-3.00143 19.34252,-19.34253 19.34252,-19.34253 l 5.70846,4.68636 -19.6905,20.86957 -5.65954,-5.42373 z"
       id="path16" />
    <path
       style="fill:#000000"
       d="m 644.00884,454.29624 19.92631,-20.16212 5.65955,6.01326 -20.63376,20.16213 z"
       id="path17" />
    <path
       style="fill:#000000"
       d="m 679.20413,419.10096 20.04421,-19.8084 5.24687,5.24687 -19.74945,20.63375 -5.95431,-5.7185 1.00221,-0.58954 z"
       id="path18" />
    <path
       style="fill:#000000"
       d="m 715.00637,383.18205 19.20144,-19.5564 5.89536,5.89535 -20.63375,20.04422 -5.54164,-6.13117 z"
       id="path19" />
    <path
       style="fill:#000000"
       d="m 749.77156,348.29772 20.51584,-19.92631 5.07001,5.54163 -20.28003,20.86957 z"
       id="path20" />
    <path
       style="fill:#000000"
       d="m 784.70615,313.48227 21.00998,-21.00998 5.33587,6.33634 -21.67697,20.343 z"
       id="path21" />
    <path
       style="fill:#000000"
       d="m 819.38929,278.46563 21.00999,-20.67649 5.33586,6.33635 -20.0095,19.34252 z"
       id="path22" />
    <path
       style="fill:#000000"
       d="m 695.33035,542.59112 5.00238,-13.33967 10.67174,-10.33825 11.00523,-5.66936 13.00617,-3.00142 11.67222,1.33396 13.67316,7.00333 9.33777,11.67221 6.00285,14.67364 7.67031,-39.35203 -15.00713,-7.67031 3.00143,-7.00333 36.3506,20.00951 10.00476,-47.68932 8.0038,1.33396 -10.33825,51.35774 31.68172,17.67506 6.66984,-5.66936 6.33634,-1.00047 5.66936,1.66746 0.33349,5.00237 -19.34252,18.67554 -5.31192,-1.42332 -1.02442,-2.57858 5.00237,-8.67079 -22.67744,-11.67221 -36.01711,34.34965 -22.67744,-8.33729 -0.66698,-2.50119 0.50023,-5.8361 -3.41829,-8.83754 -5.75273,-6.83658 -7.25345,-5.66936 -7.33681,-1.66746 -8.42067,-0.0834 -5.96246,1.0095 -7.89978,4.12675 -8.72513,10.25792 -2.82977,10.72955 1.6507,14.03095 9.75978,11.95342 14.1734,5.33587 16.17435,-1.66746 11.00523,-11.67221 -26.84608,-12.83944 4.50213,-6.50308 18.00856,8.83753 18.6611,9.38514 21.10538,10.14002 1.91999,3.81926 -1.00047,5.66936 c 0,0 -12.17245,10.83848 -12.17245,11.67221 0,0.83373 -8.67079,0 -8.67079,0 l -5.33587,-13.00618 7.17008,-2.16769 2.83468,7.50356 8.83753,-8.17055 -17.84181,-8.50404 -8.83753,10.83849 -15.50737,8.33729 -14.50689,0.16675 -14.34015,-3.33492 -10.50499,-7.83706 -9.83801,-14.34014 -2.50119,-20.343 z"
       id="path23" />
    <path
       style="fill:#ffffff"
       d="m 778.65881,547.5608 7.78187,4.9521 28.29771,-27.59028 -25.70375,-15.09211 z"
       id="path24" />
    <path
       style="fill:#000000"
       d="m 800.58954,499.21887 -15.79956,-16.03538 -4.00884,-23.34561 8.01768,-20.75166 17.92189,-13.91304 15.79956,-2.82977 19.33677,3.77302 10.37583,9.66839 7.54606,12.26234 3.53721,11.31909 -1.6507,16.74281 -7.54606,15.56375 -13.91304,9.43257 -14.8563,4.24466 -1.6507,-2.35815 2.35814,-9.78629 11.90862,-4.71628 10.37583,-10.84746 3.41931,-13.91305 -3.02467,-13.51491 -10.65256,-10.18442 -9.19676,-4.48047 h -10.61164 l -10.25792,3.4193 -7.54606,5.89536 -4.9521,8.13559 -2.12233,9.31467 c 0,0 0.23582,6.72071 0.70744,7.19233 0.47163,0.47163 4.8342,11.90863 4.8342,11.90863 l 7.42815,6.48489 -3.53722,12.26234 z"
       id="path25" />
    <path
       style="fill:#000000"
       d="m 819.92631,415.50479 71.68755,-73.10243 6.36698,5.42373 -70.03685,69.56521 z"
       id="path26" />
    <path
       style="fill:#000000"
       d="m 842.32867,419.74945 49.28519,-46.69123 5.89535,5.42373 c 0,0 -47.8703,47.39867 -46.92704,47.39867 0.94325,0 -8.2535,-6.13117 -8.2535,-6.13117 z"
       id="path27" />
    <path
       style="fill:#000000"
       d="m 588.27949,608.289 298.80863,-298.80863 9.33777,9.33777 -298.80863,300.1426 z"
       id="path28" />
  </g>
</svg>
