<?xml version="1.0" encoding="UTF-8" standalone="no"?>
<!-- Created with Inkscape (http://www.inkscape.org/) -->

<svg
   version="1.1"
   id="svg1"
   width="330.88"
   height="272.32001"
   viewBox="0 0 330.88 272.32001"
   sodipodi:docname="twitter-logo.png"
   xmlns:inkscape="http://www.inkscape.org/namespaces/inkscape"
   xmlns:sodipodi="http://sodipodi.sourceforge.net/DTD/sodipodi-0.dtd"
   xmlns="http://www.w3.org/2000/svg"
   xmlns:svg="http://www.w3.org/2000/svg">
  <defs
     id="defs1">
    <inkscape:path-effect
       effect="bspline"
       id="path-effect1"
       is_visible="true"
       lpeversion="1.3"
       weight="33.333333"
       steps="2"
       helper_size="0"
       apply_no_weight="true"
       apply_with_weight="true"
       only_selected="false"
       uniform="false" />
  </defs>
  <sodipodi:namedview
     id="namedview1"
     pagecolor="#ffffff"
     bordercolor="#000000"
     borderopacity="0.25"
     inkscape:showpageshadow="2"
     inkscape:pageopacity="0.0"
     inkscape:pagecheckerboard="0"
     inkscape:deskcolor="#d1d1d1"
     showgrid="false" />
  <path
     style="display:inline;fill:#1d9bf0;fill-opacity:1"
     d="m 289.62113,125.49575 c 0.60675,-2.12362 1.82024,-6.37086 2.59554,-9.53945 0.77529,-3.1686 1.11237,-5.25847 1.41574,-7.55065 0.30338,-2.29219 0.57304,-4.78654 0.87641,-7.71919 0.30338,-2.932655 0.64046,-6.30341 1.01125,-10.618117 0.3708,-4.314706 0.77529,-9.573085 0.8427,-13.449556 0.0674,-3.876472 -0.20224,-6.370832 0.57306,-8.056252 0.77531,-1.685421 2.59552,-2.561818 4.82029,-4.213546 2.22477,-1.651728 4.85396,-4.078672 7.98886,-7.179865 3.1349,-3.101194 6.77532,-6.876442 9.70796,-10.095605 2.93264,-3.219163 5.15733,-5.882057 6.74882,-8.069087 1.59148,-2.18703 2.52092,-3.846746 3.46475,-5.532158 0,0 -5.76411,2.426993 -5.76411,2.426993 0,0 -3.84274,1.71912 -3.84274,1.71912 0,0 -5.66298,1.820244 -5.66298,1.820244 0,0 -13.34846,3.337115 -13.34846,3.337115 0,0 -6.16861,1.112372 -6.16861,1.112372 0,0 -3.13486,0.202249 -3.13486,0.202249 1.88766,-1.314621 3.77532,-2.629242 5.96638,-4.415801 2.19106,-1.786558 4.68542,-4.044965 6.85962,-6.202312 2.1742,-2.157348 4.02811,-4.213506 5.61241,-6.219165 1.5843,-2.005659 2.8989,-3.960701 4.02813,-5.882089 1.12924,-1.921388 2.07305,-3.809011 3.0506,-5.949508 0.97755,-2.140497 1.98877,-4.533735 2.57567,-5.9904509 0.5869,-1.4567155 0.76144,-2.0152301 0.92998,-2.5545618 0,0 -9.0001,5.0562347 -9.0001,5.0562347 0,0 -10.92147,4.449487 -10.92147,4.449487 0,0 -7.07873,2.831491 -7.07873,2.831491 0,0 -16.17995,4.044988 -16.17995,4.044988 -1.34833,-1.382037 -2.69666,-2.764075 -3.47746,-3.583643 -0.7808,-0.819569 -0.99407,-1.076662 -1.76811,-1.741515 -0.77403,-0.664853 -2.10879,-1.737426 -3.55084,-2.821943 -1.44205,-1.084517 -2.99132,-2.180921 -4.88026,-3.252061 -1.88895,-1.07114 -4.11746,-2.1169554 -6.52111,-3.1960714 -2.40364,-1.079116 -4.98227,-2.191466 -7.96548,-3.1774399 -2.98321,-0.9859739 -6.37082,-1.8455169 -9.10964,-2.3679966 -2.73881,-0.5224798 -4.82868,-0.7078715 -7.66021,-0.8005692 -2.83153,-0.092698 -6.40453,-0.092698 -9.01693,2.1e-6 -2.61241,0.0927 -4.26408,0.2780912 -6.15176,0.6236052 -1.88768,0.345514 -4.01126,0.8511279 -5.89051,1.3314748 -1.87925,0.480347 -3.51406,0.935398 -5.09836,1.4578824 -1.58431,0.5224843 -3.118,1.1123646 -4.87085,1.9213731 -1.75285,0.8090084 -3.72474,1.8370886 -5.67141,2.9326185 -1.94667,1.095529 -3.868,2.258439 -5.90737,3.691056 -2.03937,1.432617 -4.19665,3.134847 -5.89893,4.609596 -1.70228,1.474749 -2.94946,2.72193 -4.1124,3.96072 -1.16295,1.23879 -2.24159,2.469115 -3.28655,3.800604 -1.04497,1.33149 -2.0562,2.764062 -2.94104,3.985994 -0.88485,1.221931 -1.64328,2.233162 -2.32587,3.227563 -0.6826,0.994402 -1.28934,1.971924 -1.88766,3.067452 -0.59833,1.095529 -1.18821,2.308999 -1.95509,3.960724 -0.76687,1.651725 -1.71068,3.741593 -2.39328,5.519717 -0.68259,1.778124 -1.10394,3.244401 -1.61799,5.258495 -0.51406,2.014093 -1.12079,4.575866 -1.54215,7.188281 -0.42135,2.612415 -0.6573,5.275313 -0.77528,7.643336 -0.11798,2.368024 -0.11798,4.441039 0.16855,7.432684 0.28652,2.991645 0.85955,6.901721 -1.98886,8.561846 -2.84841,1.660124 -9.11802,1.070242 -13.86248,0.471915 -4.74447,-0.598327 -7.96354,-1.205062 -10.88776,-1.794962 -2.92421,-0.5899 -5.5534,-1.162929 -9.10966,-2.098346 -3.55627,-0.935417 -8.03937,-2.233156 -11.97484,-3.446664 -3.93547,-1.213507 -7.32308,-2.34271 -10.93833,-3.775328 C 99.102125,70.416462 95.259464,68.680523 91.652649,66.961386 88.045835,65.242249 84.675079,63.540018 81.026123,61.525927 77.377168,59.511837 73.450238,57.186016 69.169246,54.413482 64.888254,51.640947 60.253465,48.421875 56.562386,45.632495 52.871307,42.843116 50.124141,40.483587 48.329169,38.975137 46.534197,37.466686 45.691508,36.809389 43.88809,35.157659 42.084672,33.50593 39.320653,30.859886 35.924508,27.295196 32.528363,23.730506 28.50031,19.2474 26.414612,16.917317 c -2.085699,-2.330083 -2.228956,-2.507048 -3.054823,-0.939582 -0.825866,1.567466 -2.33428,4.879234 -3.627844,8.321722 -1.293564,3.442489 -2.372206,7.015491 -3.130645,10.976252 -0.75844,3.96076 -1.196638,8.309035 -1.365178,11.89899 -0.16854,3.589955 -0.06742,6.42139 0.337088,9.421454 0.404506,3.000065 1.112365,6.168575 2.005644,9.303472 0.893279,3.134896 1.97192,6.235991 3.455102,9.606851 1.483181,3.37086 3.370804,7.011276 4.99724,9.77537 1.626436,2.764094 2.991592,4.651717 4.643314,6.606815 1.651723,1.955097 3.589908,3.977551 5.949512,6.025346 2.359604,2.047795 5.140479,4.120813 5.191014,5.073063 0.05054,0.95226 -2.629216,0.78372 -5.20792,0.38764 -2.578704,-0.39608 -5.056209,-1.01967 -7.929869,-1.88766 -2.87366,-0.868 -6.143293,-1.980351 -8.564775,-2.978013 -2.421481,-0.997662 -4.151624,-1.968661 -5.803328,-2.895637 0,0 0.101125,4.7023 0.101125,4.7023 0.06742,0.79214 0.134834,1.58429 0.278095,2.7978 0.143262,1.21351 0.362362,2.84833 0.63203,4.39892 0.269669,1.55059 0.589891,3.01687 1.01125,4.76129 0.42136,1.74443 0.943826,3.76688 1.626426,5.84838 0.682601,2.08151 1.525289,4.22194 2.292158,6.06748 0.766868,1.84554 1.457873,3.39609 2.334297,4.98039 0.876423,1.5843 1.938215,3.20227 2.9579,4.7023 1.019684,1.50003 1.997204,2.88204 3.10116,4.33151 1.103957,1.44947 2.334282,2.96631 3.834313,4.55061 1.500032,1.5843 3.269679,3.23597 5.477594,5.09837 2.207915,1.8624 4.853961,3.93542 7.845601,5.84838 2.991639,1.91296 6.328687,3.66575 10.070343,5.1405 3.741656,1.47475 7.887683,2.67137 8.38485,3.64049 0.497166,0.96911 -2.654492,1.71068 -5.317464,2.09832 -2.662972,0.38765 -4.83711,0.42135 -6.884904,0.44664 -2.047794,0.0253 -3.969125,0.0421 -6.290278,-0.14257 -2.321153,-0.18472 -5.06095,-0.5737 -7.791317,-0.96135 0,0 0.85956,2.83149 0.85956,2.83149 0.488769,1.09552 0.977539,2.19104 1.761266,3.87647 0.783728,1.68544 1.862371,3.9607 3.160153,6.21074 1.297781,2.25005 2.814622,4.47475 4.677025,6.91862 1.862403,2.44388 4.070244,5.10677 6.615246,7.63491 2.545002,2.52815 5.426993,4.92138 8.965514,7.26298 3.53852,2.3416 7.733338,4.63142 11.928339,6.44376 4.195001,1.81233 8.389936,3.14708 12.573075,3.98132 4.18314,0.83424 8.354237,1.16793 8.509129,2.74109 0.154892,1.57316 -3.706352,4.38567 -8.771422,7.44854 -5.06507,3.06288 -11.333632,6.37592 -16.838075,8.88942 -5.504444,2.51351 -10.244452,4.22734 -15.715722,5.7753 -5.47127,1.54796 -11.673461,2.92997 -17.353349,3.82325 -5.679888,0.89327 -10.837145,1.29776 -16.878215,1.35365 -6.04107,0.0559 -13.0714972,-0.24128 -20.0491013,-0.53623 -0.1011247,0.0337 -0.2022453,0.0674 0.6573311,0.63625 0.8595764,0.56884 2.6797824,1.67276 5.4733901,3.29921 2.7936081,1.62644 6.5604281,3.7753 10.3273601,5.69669 3.766933,1.92138 7.533752,3.61518 11.532434,5.31325 3.998682,1.69807 8.228979,3.4003 14.018442,5.27113 5.789464,1.87083 13.137712,3.91013 20.536742,5.55342 7.399031,1.64329 14.8484,2.89047 20.604122,3.63206 5.755722,0.74158 9.817483,0.97753 14.620963,1.08708 4.80348,0.10954 10.34837,0.0927 15.12655,-0.14329 4.77818,-0.23597 8.78938,-0.69102 12.73329,-1.13766 3.9439,-0.44664 7.82027,-0.88484 12.65745,-1.71071 4.83719,-0.82586 10.63489,-2.03933 17.09009,-3.87646 6.4552,-1.83712 13.56749,-4.29777 20.52831,-7.07873 6.96082,-2.78096 13.76975,-5.88205 22.24747,-10.97207 8.47772,-5.09001 18.6237,-12.1686 27.28678,-19.23055 8.66309,-7.06194 15.8428,-14.10682 21.8092,-20.9328 5.96641,-6.82598 10.71917,-13.43266 14.74734,-19.6856 4.02817,-6.25294 7.33151,-12.15176 11.03946,-19.88789 3.70795,-7.73614 7.82027,-17.30909 10.31469,-23.74739 2.49441,-6.43831 3.37081,-9.74165 3.80901,-11.39335 0.43821,-1.6517 0.43821,-1.65169 1.04496,-3.77531 z"
     id="path1"
     inkscape:path-effect="#path-effect1"
     inkscape:original-d="m 289.01438,127.61937 c 1.2135,-4.24724 2.42699,-8.49448 3.64049,-12.74172 0.33709,-2.08995 0.67416,-4.17982 1.01125,-6.26973 0.26967,-2.49446 0.53933,-4.98881 0.80899,-7.48322 0.33709,-3.370895 0.67417,-6.74165 1.01125,-10.112474 0.40451,-5.258589 0.809,-10.516968 1.2135,-15.775452 -0.26967,-2.494459 -0.53933,-4.988819 -0.809,-7.483228 1.82028,-0.876431 3.64049,-1.752828 5.46073,-2.629242 2.6293,-2.427041 5.25849,-4.853985 7.88773,-7.280978 3.64056,-3.775397 7.28098,-7.550644 10.92147,-11.325966 2.22479,-2.663003 4.44948,-5.325901 6.67423,-7.988851 0.94385,-1.719154 2.83149,-5.056235 2.83149,-5.056235 l -5.76411,2.426993 -3.84274,1.71912 -5.66298,1.820244 -13.34846,3.337115 -6.16861,1.112372 -3.13486,0.202249 c 0,0 3.77532,-2.629242 5.66298,-3.943863 2.49446,-2.258496 4.98882,-4.516903 7.48323,-6.775354 1.85399,-2.056244 3.7079,-4.112405 5.56186,-6.168607 1.31464,-1.955116 2.62924,-3.910155 3.94386,-5.865232 0.94385,-1.887699 1.88766,-3.775322 2.83149,-5.662983 1.01127,-2.393332 2.0225,-4.786569 3.03374,-7.1798535 0.10113,-0.5393425 0.50563,-1.6179952 0.50563,-1.6179952 l -9.0001,5.0562347 -10.92147,4.449487 -7.07873,2.831491 -16.17995,4.044988 c 0,0 -2.69666,-2.764075 -4.04499,-4.146112 -0.21327,-0.257102 -0.42654,-0.514193 -0.63981,-0.77129 -1.3348,-1.072611 -2.66956,-2.145178 -4.00433,-3.217768 -1.54933,-1.096446 -3.0986,-2.192849 -4.64789,-3.289274 -2.2286,-1.045858 -4.45711,-2.0916747 -6.68567,-3.1375121 -2.57873,-1.1123939 -5.15736,-2.2247434 -7.73604,-3.337115 -3.38774,-0.8595771 -6.77535,-1.7191198 -10.16303,-2.5786798 -2.08995,-0.1853989 -4.17982,-0.3707905 -6.26973,-0.5561858 -3.57315,0 -7.14615,0 -10.71922,0 -1.65174,0.185399 -3.30341,0.3707906 -4.95511,0.5561858 -2.12366,0.5056336 -4.24724,1.011247 -6.37086,1.5168705 -1.63488,0.4550702 -3.26969,0.9101222 -4.90454,1.3651834 -1.53376,0.5899058 -3.06745,1.1797881 -4.60118,1.7696822 -1.97197,1.0281216 -3.94386,2.0562021 -5.91579,3.0843028 -1.92141,1.162958 -3.84274,2.325868 -5.76411,3.488802 -2.15737,1.7023 -4.31465,3.404532 -6.47198,5.106798 -1.24723,1.247229 -2.49441,2.494409 -3.74161,3.741613 -1.07869,1.230375 -2.15733,2.460701 -3.23599,3.691052 -1.01127,1.432628 -2.0225,2.865199 -3.03374,4.297799 -0.75845,1.011267 -1.51688,2.022494 -2.27531,3.033741 -0.60676,0.977558 -1.2135,1.955078 -1.82024,2.932616 -0.58991,1.213521 -1.17979,2.426993 -1.76969,3.640489 -0.94385,2.089953 -1.88766,4.179821 -2.83149,6.269732 -0.42136,1.466337 -0.8427,2.932616 -1.26406,4.398924 -0.60676,2.561877 -1.21349,5.123651 -1.82024,7.685477 -0.23596,2.663003 -0.47192,5.3259 -0.70787,7.988851 0,2.073097 0,4.146112 0,6.219169 0.57305,3.910233 1.14608,7.820309 1.71912,11.730464 -6.26986,-0.589906 -12.53947,-1.179788 -18.8092,-1.769682 -3.2192,-0.60676 -6.43827,-1.213496 -9.65741,-1.820244 -2.62929,-0.573052 -5.25848,-1.14608 -7.88772,-1.71912 -4.48329,-1.297793 -8.96639,-2.595534 -13.44959,-3.893301 -3.38774,-1.129248 -6.77535,-2.258452 -10.16303,-3.387677 -3.842815,-1.736009 -7.685476,-3.471948 -11.528215,-5.207922 -3.37089,-1.7023 -6.741646,-3.404532 -10.112469,-5.106797 C 77.377168,59.511837 73.450238,57.186016 69.523229,54.860148 64.888254,51.640947 60.253465,48.421875 55.618583,45.202739 52.871307,42.843116 50.124141,40.483587 47.37692,38.12401 46.534197,37.466687 45.691508,36.809389 44.848803,36.152079 42.084672,33.50593 39.320653,30.859886 36.556578,28.21379 32.528363,23.730506 28.50031,19.2474 24.472176,14.764206 c -0.143262,-0.176972 -0.28652,-0.353937 -0.42978,-0.530905 -1.508473,3.3119 -3.016886,6.623668 -4.52533,9.935501 -1.078685,3.573144 -2.157327,7.146146 -3.23599,10.719218 -0.438216,4.348449 -0.876414,8.696724 -1.314621,13.045086 0.101127,2.831548 0.202249,5.662983 0.303374,8.494474 0.707887,3.168638 1.415746,6.337148 2.123619,9.505722 1.078685,3.101219 2.157327,6.202314 3.23599,9.303472 1.887699,3.640562 3.775322,7.280978 5.662983,10.921467 1.365211,1.887699 2.730367,3.775322 4.09555,5.662983 1.938262,2.022534 3.876447,4.044988 5.81467,6.067482 2.780985,2.073097 5.561858,4.146114 8.342788,6.219164 -2.679858,-0.16854 -5.359609,-0.33708 -8.039414,-0.50562 -2.477604,-0.62361 -4.95511,-1.2472 -7.432665,-1.87081 -3.269764,-1.11239 -6.539397,-2.224739 -9.809095,-3.337111 C 17.69679,97.501043 14.309144,95.6134 14.309144,95.6134 l 0.101125,4.7023 c 0,0 0.134833,1.58429 0.20225,2.37643 0.219107,1.63488 0.438207,3.2697 0.65731,4.90455 0.320235,1.46633 0.640457,2.93261 0.960685,4.39892 0.522488,2.02254 1.044955,4.04499 1.567433,6.06748 0.842722,2.14052 1.685411,4.28095 2.528117,6.42142 0.691032,1.55061 1.382037,3.10116 2.073056,4.65174 1.061831,1.61802 2.123619,3.23599 3.185428,4.85398 0.977558,1.38207 1.955078,2.76408 2.932616,4.14611 1.230375,1.51691 2.460701,3.03375 3.691052,4.55062 1.769717,1.65173 3.539364,3.3034 5.309046,4.95511 2.646149,2.07309 5.292193,4.14611 7.938289,6.21917 3.337182,1.75286 6.67423,3.50565 10.011345,5.25848 4.146195,1.19667 8.292225,2.39328 12.438337,3.58993 -3.151782,0.74159 -6.303439,1.48316 -9.455159,2.22474 -2.174224,0.0337 -4.348362,0.0674 -6.522543,0.10112 -1.921407,0.0169 -3.842738,0.0337 -5.764107,0.0506 -2.713567,-0.43822 -8.191101,-1.16294 -8.191101,-1.16294 l 0.85956,2.83149 c 0,0 0.977539,2.19104 1.466308,3.28656 1.078685,2.27535 2.157327,4.55061 3.235991,6.82591 1.5169,2.22479 3.033741,4.44949 4.550611,6.67423 2.207933,2.66301 4.415778,5.3259 6.623668,7.98885 2.882111,2.39334 5.764107,4.78657 8.646161,7.17986 4.194986,2.28991 8.389804,4.57973 12.584706,6.8696 4.1951,1.3348 8.390032,2.66956 12.585048,4.00433 4.171265,0.3337 8.342362,0.66739 12.513544,1.00109 -3.8614,2.81262 -7.722644,5.62513 -11.583966,8.4377 -6.268815,3.31318 -12.537378,6.62622 -18.806067,9.93933 -4.740197,1.7139 -9.480205,3.42773 -14.220307,5.14159 -6.202438,1.38207 -12.404629,2.76408 -18.606944,4.14611 -5.157462,0.40451 -10.314719,0.809 -15.472078,1.2135 -6.92718,-0.23596 -20.9328123,-0.88484 -20.9328123,-0.88484 0,0 -0.2022493,0.0674 -0.303374,0.10112 1.8202809,1.10397 3.640489,2.20789 5.4607335,3.31184 3.7669708,2.14894 7.5337898,4.2978 11.3006848,6.4467 3.76697,1.69387 7.53379,3.38767 11.300685,5.08151 4.230468,1.7023 8.460766,3.40453 12.691149,5.1068 7.348542,2.03939 14.696789,4.0787 22.045184,6.11804 7.449668,1.24723 14.899038,2.49441 22.348558,3.74162 4.061923,0.23596 8.123684,0.47191 12.185526,0.70787 5.545118,-0.0168 11.090008,-0.0337 16.635008,-0.0506 4.01136,-0.45507 8.02256,-0.91012 12.03384,-1.36518 3.87653,-0.43822 7.7529,-0.87642 11.62934,-1.31463 5.79793,-1.21352 11.59563,-2.42699 17.39345,-3.64049 7.11258,-2.46075 14.22487,-4.9214 21.33731,-7.3821 6.8092,-3.10122 13.61813,-6.20231 20.42719,-9.30347 10.14638,-7.07887 20.29236,-14.15746 30.43853,-21.23619 7.18,-7.04516 14.35971,-14.09004 21.53956,-21.13506 4.75296,-6.60694 9.50573,-13.21362 14.25859,-19.82044 3.30347,-5.89906 6.60681,-11.79788 9.91022,-17.69682 4.11248,-9.57333 8.2248,-19.14628 12.33721,-28.71941 0.87643,-3.30348 1.75283,-6.60682 2.62924,-9.91022 z" />
</svg>
